<svg width="199" height="201" viewBox="0 0 199 201" fill="none" xmlns="http://www.w3.org/2000/svg">
<rect width="199" height="201" rx="25" fill="#334462"/>
<path d="M112.534 82.9043C112.534 75.7822 108.065 71.8506 100.216 71.8506H85.7787V94.7959H97.9531C107.349 94.7637 112.534 90.5098 112.534 82.9043ZM165.099 78.7793C162.378 68.8213 161.977 56.6074 162.292 47.165C162.607 37.3359 155.789 28.3125 146.622 28.3125H52.4349C43.2396 28.3125 36.4505 37.3682 36.7656 47.165C37.0521 56.6074 36.6797 68.8213 33.9583 78.7793C31.2083 88.7695 26.5964 95.0859 19.0052 95.8916V105.076C26.5677 105.882 31.2083 112.198 33.9583 122.188C36.6797 132.146 37.0807 144.36 36.7656 153.803C36.4505 163.632 43.2682 172.655 52.4349 172.655H146.594C155.789 172.655 162.578 163.6 162.263 153.803C161.977 144.36 162.349 132.146 165.07 122.188C167.82 112.198 172.432 105.882 179.995 105.076V95.8916C172.461 95.0859 167.82 88.7695 165.099 78.7793ZM102.995 138.882H74.9505V62.0859H102.852C115.255 62.0859 123.391 69.627 123.391 81.2285C123.391 89.3818 117.919 96.665 110.93 97.9219V98.3408C120.44 99.501 126.828 106.913 126.828 117.129C126.828 130.696 117.862 138.882 102.995 138.882ZM100.13 103.852H85.7787V129.117H100.76C110.557 129.117 115.742 124.702 115.742 116.388C115.742 108.105 110.414 103.852 100.13 103.852Z" fill="white"/>
</svg>
