<svg width="197" height="201" viewBox="0 0 197 201" fill="none" xmlns="http://www.w3.org/2000/svg">
<rect width="197" height="201" rx="25" fill="#334462"/>
<rect x="16.5" y="18.5" width="164" height="164" stroke="#334462"/>
<path d="M98 144.333C98 156.707 87.9572 166.75 75.5834 166.75C63.2095 166.75 53.1667 156.707 53.1667 144.333C53.1667 131.96 63.2095 121.917 75.5834 121.917H98V144.333Z" fill="white" stroke="#334462"/>
<path d="M53.1667 99.4999C53.1667 87.1261 63.2095 77.0833 75.5834 77.0833H98V121.917H75.5834C63.2095 121.917 53.1667 111.874 53.1667 99.4999Z" fill="white" stroke="#334462"/>
<path d="M53.1667 54.6667C53.1667 42.2928 63.2095 32.25 75.5834 32.25H98V77.0833H75.5834C63.2095 77.0833 53.1667 67.0405 53.1667 54.6667Z" fill="white" stroke="#334462"/>
<path d="M98 32.25H120.417C132.791 32.25 142.833 42.2928 142.833 54.6667C142.833 67.0405 132.791 77.0833 120.417 77.0833H98V32.25Z" fill="white" stroke="#334462"/>
<path d="M143.833 100.5C143.833 112.874 133.791 122.917 121.417 122.917C109.043 122.917 99 112.874 99 100.5C99 88.1261 109.043 78.0833 121.417 78.0833C133.791 78.0833 143.833 88.1261 143.833 100.5Z" fill="white" stroke="#334462"/>
</svg>
