<svg width="199" height="201" viewBox="0 0 199 201" fill="none" xmlns="http://www.w3.org/2000/svg">
<rect width="199" height="201" rx="25" fill="#334462"/>
<path d="M112.724 84.2508L101.015 95.1463L90.1498 73.2306L95.772 60.6274C97.1952 58.1009 99.5171 58.0961 100.94 60.6274L112.724 84.2508Z" fill="#D3D3D3"/>
<path d="M101.015 95.1459L57.2587 135.852L90.1498 73.2302L101.015 95.1459Z" fill="#C3C3C3"/>
<path d="M125.531 67.5971C127.623 65.5865 129.786 66.2723 130.337 69.1211L141.726 135.306L103.971 157.934C102.649 158.664 99.1507 158.98 99.1507 158.98C99.1507 158.98 95.957 158.598 94.7398 157.923L57.2574 135.849L125.531 67.5971Z" fill="white"/>
<path d="M90.1498 73.2303L57.2587 135.852L71.9089 44.3288C72.4484 41.4778 74.0713 41.2032 75.5193 43.7198L90.1498 73.2303Z" fill="white"/>
</svg>
