<svg width="200" height="199" viewBox="0 0 200 199" fill="none" xmlns="http://www.w3.org/2000/svg">
<rect width="200" height="199" rx="25" fill="#334462"/>
<g clip-path="url(#clip0_103_711)">
<path fill-rule="evenodd" clip-rule="evenodd" d="M78.6054 75.365C84.9732 71.7405 89.2675 64.9006 89.2675 57.0581C89.2675 45.4289 79.8228 36 68.1741 36C56.5254 36 47.0808 45.4289 47.0808 57.0581C47.0808 64.7455 51.2073 71.4697 57.3691 75.147C56.7677 87.724 57.4458 113.486 57.5689 123.689C51.2518 127.327 47 134.139 47 141.942C47 153.572 56.4447 163 68.0934 163C79.7431 163 89.1878 153.572 89.1878 141.942C89.1878 134.13 84.9267 127.312 78.5992 123.677L78.5992 98.9429C86.7083 101.298 94.7802 101.09 102.359 100.893C105.507 100.812 108.542 100.732 111.471 100.961C117.671 101.448 122.234 105.166 122.491 123.094C115.568 126.548 110.813 133.69 110.813 141.942C110.813 153.572 120.257 163 131.908 163C143.556 163 153 153.572 153 141.942C153 134.572 149.207 128.086 143.463 124.324C143.315 88.7358 130.576 81.4381 113.113 80.0676C109.652 79.7958 105.831 79.895 101.868 79.9984C94.0214 80.203 85.4143 80.4273 78.5992 76.0668C78.5992 75.8363 78.6023 75.6017 78.6054 75.365ZM131.908 149.887C136.301 149.887 139.865 146.33 139.865 141.943C139.865 137.556 136.302 133.998 131.908 133.998C127.512 133.998 123.949 137.556 123.949 141.943C123.949 146.329 127.512 149.887 131.908 149.887ZM68.0934 149.887C72.488 149.887 76.0514 146.33 76.0514 141.943C76.0514 137.556 72.4891 133.998 68.0934 133.998C63.6977 133.998 60.1364 137.556 60.1364 141.943C60.1364 146.329 63.6987 149.887 68.0934 149.887ZM68.1731 65.0039C72.5678 65.0039 76.1311 61.4465 76.1311 57.0581C76.1311 52.6698 72.5688 49.1144 68.1731 49.1144C63.7774 49.1144 60.2151 52.6698 60.2151 57.0581C60.2151 61.4465 63.7784 65.0039 68.1731 65.0039Z" fill="white"/>
</g>
<defs>
<clipPath id="clip0_103_711">
<rect width="106" height="127" fill="white" transform="matrix(1 8.74228e-08 8.74228e-08 -1 47 163)"/>
</clipPath>
</defs>
</svg>
