<svg width="199" height="201" viewBox="0 0 199 201" fill="none" xmlns="http://www.w3.org/2000/svg">
<rect width="199" height="201" rx="25" fill="#334462"/>
<path d="M173.62 26.3793H25.3795V174.621H173.62V26.3793Z" fill="#334462"/>
<path d="M106.052 141.995C106.052 156.422 97.5809 163.006 85.2381 163.006C74.0874 163.006 67.635 157.249 64.3257 150.268L75.6752 143.418C77.8592 147.289 79.8447 150.565 84.6426 150.565C89.2088 150.565 92.1214 148.778 92.1214 141.796V94.4447H106.052V141.995Z" fill="white"/>
<path d="M139.009 163.006C126.071 163.006 117.7 156.851 113.629 148.778L124.979 142.226C127.957 147.09 131.862 150.697 138.711 150.697C144.469 150.697 148.174 147.818 148.174 143.815C148.174 139.049 144.403 137.363 138.017 134.55L134.542 133.061C124.483 128.792 117.832 123.398 117.832 112.049C117.832 101.592 125.806 93.6509 138.214 93.6509C147.082 93.6509 153.436 96.7282 158.002 104.802L147.149 111.751C144.766 107.482 142.185 105.795 138.182 105.795C134.111 105.795 131.53 108.376 131.53 111.751C131.53 115.92 134.111 117.608 140.101 120.222L143.575 121.711C155.421 126.774 162.072 131.969 162.072 143.617C162.072 156.124 152.211 163.006 139.009 163.006Z" fill="white"/>
</svg>
