<svg width="200" height="201" viewBox="0 0 200 201" fill="none" xmlns="http://www.w3.org/2000/svg">
<rect width="200" height="201" rx="25" fill="#334462"/>
<path d="M10.7 132.3H16.5V109.3L25.6 129.3C26.6 131.7 28.1 132.6 31 132.6C33.9 132.6 35.2 131.7 36.3 129.3L45.3 109.3V132.3H51.1V109.3C51.1 107.1 50.2 106 48.3 105.4C43.9 104.1 40.9 105.2 39.6 108.2L30.8 128L22.2 108.2C20.9 105.2 17.9 104.1 13.5 105.4C11.6 106 10.7 107 10.7 109.3V132.3Z" fill="white"/>
<path d="M55.9 113.6H61.7V126.2C61.7 126.9 61.9 128.5 65.1 128.6C66.8 128.6 77.7 128.6 77.8 128.6V113.5H83.6C83.6 113.5 83.6 134.1 83.6 134.2C83.6 139.3 77.3 140.4 74.4 140.4H56.1V136.5H74.5C78.2 136.1 77.8 134.2 77.8 133.6V132.1H65.4C59.6 132.1 55.9 129.5 55.9 126.6C55.9 126.3 56.1 113.7 55.9 113.6Z" fill="white"/>
<path d="M181.3 98.9C177.7 98.8 175 99.2 172.6 100.1C171.9 100.4 170.9 100.4 170.8 101.2C171.2 101.6 171.2 102.1 171.5 102.6C172 103.5 173 104.7 173.8 105.3C174.7 106 175.7 106.7 176.7 107.4C178.4 108.5 180.4 109.1 182.1 110.2C183.1 110.8 184.1 111.6 185 112.3C185.5 112.7 185.8 113.2 186.4 113.5V113.4C186.1 113 186 112.4 185.7 112C185.3 111.6 184.8 111.2 184.4 110.7C183.1 109 181.5 107.4 179.8 106.2C178.4 105.2 175.2 103.9 174.7 102.2C174.7 102.2 174.7 102.2 174.6 102.1C175.6 102 176.7 101.7 177.7 101.4C179.2 101 180.6 101.1 182.2 100.7C182.9 100.5 183.6 100.3 184.3 100.1C184.3 100 184.3 99.8 184.3 99.7C183.5 98.9 182.9 97.8 182.1 97.1C179.8 95.1 177.3 93.2 174.7 91.6C173.3 90.7 171.5 90.1 170.1 89.4C169.6 89.1 168.7 89 168.4 88.6C167.6 87.6 167.1 86.3 166.6 85.2C165.3 82.7 164.1 80 162.9 77.4C162.1 75.7 161.6 73.9 160.6 72.3C156 64.7 151 60.1 143.3 55.6C141.6 54.7 139.7 54.3 137.6 53.8C136.5 53.8 135.4 53.7 134.3 53.6C133.6 53.3 132.9 52.4 132.2 52C129.7 50.4 123.1 46.9 121.2 51.5C120 54.4 123 57.3 124 58.7C124.8 59.7 125.7 60.9 126.3 62C126.6 62.8 126.7 63.6 127 64.4C127.7 66.4 128.4 68.5 129.3 70.4C129.8 71.3 130.3 72.3 131 73.2C131.4 73.7 132 73.9 132.1 74.7C131.5 75.6 131.4 76.9 131.1 78C129.5 83 130.1 89.3 132.4 93C133.1 94.1 134.8 96.6 137.1 95.6C139.1 94.8 138.7 92.3 139.2 90C139.3 89.5 139.2 89.1 139.5 88.8V88.9C140.1 90.1 140.7 91.4 141.3 92.6C142.7 94.8 145.1 97.1 147.1 98.6C148.2 99.4 149 100.8 150.4 101.3V101.2C150.4 101.2 150.4 101.2 150.3 101.2C150 100.8 149.6 100.6 149.3 100.3C148.5 99.5 147.6 98.5 147 97.6C145.1 95.1 143.5 92.3 142 89.5C141.3 88.1 140.7 86.6 140.1 85.2C139.8 84.7 139.8 83.9 139.4 83.6C138.7 84.6 137.7 85.4 137.3 86.6C136.5 88.5 136.4 90.9 136.1 93.3C135.9 93.3 136 93.3 135.9 93.4C134.5 93 134 91.6 133.4 90.3C132.1 87.1 131.8 82 133 78.4C133.3 77.5 134.7 74.5 134.1 73.6C133.8 72.8 132.9 72.3 132.4 71.6C131.8 70.8 131.2 69.7 130.8 68.7C129.7 66.2 129.2 63.4 128 60.9C127.5 59.7 126.5 58.5 125.8 57.5C125 56.3 124 55.4 123.3 54C123.1 53.5 122.8 52.7 123.1 52.2C123.2 51.8 123.4 51.7 123.7 51.6C124.3 51.1 125.9 51.7 126.5 52C128.2 52.7 129.5 53.3 130.9 54.2C131.5 54.6 132.2 55.5 133 55.7C133.3 55.7 133.6 55.7 133.9 55.7C135.3 56 136.9 55.8 138.3 56.2C140.7 57 142.8 58.1 144.7 59.3C150.5 63 155.4 68.3 158.6 74.6C159.1 75.6 159.4 76.6 159.8 77.6C160.7 79.8 161.9 82 162.8 84.2C163.7 86.3 164.6 88.4 166 90.2C166.7 91.1 169.3 91.6 170.6 92.1C171.5 92.5 172.9 92.9 173.7 93.3C175.2 94.2 176.7 95.3 178.2 96.3C178.9 96.9 181.2 98 181.3 98.9Z" fill="white"/>
<path d="M135.8 60.2C135 60.2 134.5 60.3 134 60.4C134 60.4 134 60.4 134 60.5C134 60.5 134 60.5 134.1 60.5C134.5 61.2 135.1 61.7 135.5 62.3C135.9 63 136.2 63.7 136.5 64.4L136.6 64.3C137.2 63.9 137.5 63.1 137.5 62.1C137.2 61.8 137.2 61.5 137 61.2C136.7 60.7 136.1 60.5 135.8 60.2Z" fill="white"/>
<path d="M88.1 132.3H104.9C106.9 132.3 108.7 131.9 110.3 131.2C112.8 130 114 128.5 114 126.4V122.1C114 120.4 112.6 118.9 109.9 117.8C108.5 117.3 106.7 117 104.9 117H97.9C95.5 117 94.4 116.3 94.1 114.7C94.1 114.5 94.1 114.3 94.1 114.2V111.6C94.1 111.5 94.1 111.3 94.1 111.1C94.4 109.9 95 109.6 97.1 109.4C97.3 109.4 97.5 109.4 97.6 109.4H114.2V105.5H97.9C95.5 105.5 94.3 105.6 93.2 106C89.8 107.1 88.2 108.8 88.2 111.8V115C88.2 117.6 91.1 119.9 96.1 120.4C96.6 120.4 97.2 120.4 97.8 120.4H103.8C104 120.4 104.2 120.4 104.4 120.4C106.2 120.6 107 120.9 107.6 121.6C108 122 108 122.3 108 122.7V126.1C108 126.5 107.7 127 107.2 127.5C106.7 128 105.8 128.3 104.7 128.3C104.5 128.3 104.3 128.3 104.1 128.3H88.1V132.3Z" fill="white"/>
<path d="M150.3 125.5C150.3 129.5 153.3 131.7 159.3 132.1C159.9 132.1 160.4 132.2 161 132.2H176.2V128.3H160.9C157.5 128.3 156.2 127.5 156.2 125.4V105.4H150.4L150.3 125.5Z" fill="white"/>
<path d="M117.7 125.7V111.9C117.7 108.4 120.2 106.2 125.1 105.6C125.6 105.6 126.2 105.5 126.7 105.5H137.8C138.4 105.5 138.9 105.5 139.5 105.6C144.4 106.3 146.8 108.4 146.8 111.9V125.7C146.8 128.6 145.8 130.1 143.4 131.1L149.1 136.3H142.4L137.8 132.1L133.1 132.4H126.9C125.9 132.4 124.7 132.3 123.5 132C119.5 130.9 117.7 128.9 117.7 125.7ZM124 125.4C124 125.6 124.1 125.8 124.1 126C124.4 127.6 125.9 128.5 128.2 128.5H133.5L128.7 124.1H135.4L139.6 127.9C140.4 127.5 140.9 126.8 141.1 126C141.1 125.8 141.1 125.6 141.1 125.4V112.2C141.1 112 141.1 111.8 141.1 111.7C140.8 110.2 139.3 109.3 137 109.3H128.2C125.6 109.3 123.9 110.4 123.9 112.2L124 125.4Z" fill="white"/>
<path d="M178.8 132.3H179.6V129H180.7V128.3H177.6V129H178.8V132.3ZM185.3 132.3H186.1V128.4H184.9L183.9 131.1L182.8 128.4H181.6V132.3H182.4V129.3L183.5 132.3H184.1L185.2 129.3L185.3 132.3Z" fill="white"/>
</svg>
