<svg width="199" height="201" viewBox="0 0 199 201" fill="none" xmlns="http://www.w3.org/2000/svg">
<rect width="199" height="201" rx="25" fill="#334462"/>
<g clip-path="url(#clip0_106_716)">
<path d="M94.0968 18.0444C93.7419 18.0767 92.6129 18.1895 91.5968 18.2702C68.1613 20.3828 46.2097 33.0261 32.3065 52.4587C24.5645 63.2636 19.6129 75.5198 17.7419 88.5018C17.0806 93.0334 17 94.3719 17 100.516C17 106.66 17.0806 107.999 17.7419 112.531C22.2258 143.51 44.2742 169.538 74.1774 179.182C79.5323 180.908 85.1774 182.085 91.5968 182.794C94.0968 183.069 104.903 183.069 107.403 182.794C118.484 181.569 127.871 178.827 137.129 174.102C138.548 173.376 138.823 173.183 138.629 173.022C138.5 172.925 132.452 164.813 125.194 155.008L112 137.188L95.4677 112.724C86.371 99.2744 78.8871 88.276 78.8226 88.276C78.7581 88.2599 78.6935 99.1293 78.6613 112.402C78.6129 135.64 78.5968 136.575 78.3065 137.124C77.8871 137.914 77.5645 138.236 76.8871 138.591C76.371 138.849 75.9194 138.898 73.4839 138.898H70.6935L69.9516 138.43C69.4677 138.124 69.1129 137.72 68.871 137.253L68.5323 136.527L68.5645 104.193L68.6129 71.8429L69.1129 71.214C69.371 70.8753 69.9194 70.4399 70.3064 70.2303C70.9677 69.9077 71.2258 69.8755 74.0161 69.8755C77.3065 69.8755 77.8548 70.0045 78.7097 70.9399C78.9516 71.1979 87.9032 84.6798 98.6129 100.919C109.323 117.159 123.968 139.333 131.161 150.219L144.226 170.006L144.887 169.571C150.742 165.765 156.935 160.346 161.839 154.702C172.274 142.72 179 128.109 181.258 112.531C181.919 107.999 182 106.66 182 100.516C182 94.3719 181.919 93.0334 181.258 88.5018C176.774 57.5225 154.726 31.494 124.823 21.8503C119.548 20.1409 113.935 18.9636 107.645 18.254C106.097 18.0928 95.4355 17.9154 94.0968 18.0444ZM127.871 67.9403C128.645 68.3273 129.274 69.0692 129.5 69.8432C129.629 70.2625 129.661 79.229 129.629 99.4357L129.581 128.431L124.468 120.594L119.339 112.756V91.6787C119.339 78.0517 119.403 70.3915 119.5 70.0206C119.758 69.1175 120.323 68.408 121.097 67.9887C121.758 67.65 122 67.6178 124.532 67.6178C126.919 67.6178 127.339 67.65 127.871 67.9403Z" fill="white"/>
</g>
<defs>
<clipPath id="clip0_106_716">
<rect width="165" height="165" fill="white" transform="translate(17 18)"/>
</clipPath>
</defs>
</svg>
