<svg width="199" height="201" viewBox="0 0 199 201" fill="none" xmlns="http://www.w3.org/2000/svg">
<rect width="199" height="201" rx="25" fill="#334462"/>
<path d="M52.8359 52.2852C57.4548 56.0376 59.1875 55.7512 67.8606 55.1726L149.628 50.2629C151.362 50.2629 149.92 48.5328 149.342 48.2453L135.762 38.4282C133.16 36.4082 129.693 34.0947 123.049 34.6734L43.8739 40.4481C40.9865 40.7345 40.4097 42.1781 41.5597 43.3354L52.8359 52.2852ZM57.7451 71.3409V157.374C57.7451 161.998 60.0557 163.728 65.2562 163.442L155.118 158.242C160.321 157.956 160.901 154.775 160.901 151.02V65.5637C160.901 61.8137 159.459 59.7913 156.273 60.08L62.3664 65.5637C58.901 65.8548 57.7451 67.5883 57.7451 71.3409ZM146.457 75.9559C147.033 78.557 146.457 81.1556 143.851 81.4479L139.521 82.3105V145.825C135.761 147.846 132.295 149.001 129.407 149.001C124.782 149.001 123.624 147.557 120.159 143.228L91.838 98.7674V141.785L100.8 143.807C100.8 143.807 100.8 149.001 93.5695 149.001L73.6367 150.157C73.0577 149.001 73.6367 146.117 75.6585 145.538L80.8601 144.097V87.2204L73.6379 86.6416C73.0588 84.0406 74.5013 80.2906 78.5494 79.9994L99.9329 78.5581L129.407 123.598V83.7542L121.892 82.8916C121.315 79.712 123.624 77.4031 126.513 77.1167L146.457 75.9559ZM37.2261 32.6533L119.581 26.5887C129.695 25.7213 132.296 26.3023 138.653 30.9197L164.941 49.3966C169.28 52.574 170.725 53.439 170.725 56.9027V158.242C170.725 164.593 168.412 168.349 160.322 168.923L64.6841 174.699C58.612 174.989 55.7221 174.123 52.5422 170.078L33.1828 144.961C29.7138 140.338 28.2713 136.878 28.2713 132.831V42.7545C28.2713 37.5608 30.5855 33.2285 37.2261 32.6533Z" fill="white"/>
</svg>
