<svg width="200" height="200" viewBox="0 0 200 200" fill="none" xmlns="http://www.w3.org/2000/svg">
<rect width="200" height="200" rx="25" fill="#334462"/>
<g clip-path="url(#clip0_132_1050)">
<path d="M149.553 22H49.4467C34.2883 22 22 34.6033 22 50.1502V148.85C22 164.397 34.2883 177 49.4467 177H149.553C164.712 177 177 164.397 177 148.85V50.1502C177 34.6033 164.712 22 149.553 22Z" fill="#334462"/>
<path d="M56.9035 130.696V62.5478C56.9035 62.0539 57.1094 61.8023 57.5274 61.8023C58.6329 61.8023 59.6475 61.8023 61.1619 61.7495C62.6763 61.6966 64.333 61.678 66.1018 61.6438L71.7172 61.5351C73.6919 61.4999 75.6495 61.4823 77.5899 61.4823C82.858 61.4823 87.3001 62.1574 90.9165 63.5077C94.1675 64.638 97.1326 66.496 99.5969 68.947C101.687 71.0727 103.301 73.6388 104.328 76.4676C105.3 79.2221 105.791 82.1306 105.779 85.0599C105.779 90.7508 104.496 95.4435 101.932 99.1381C99.3497 102.849 95.7209 105.659 91.5344 107.19C87.1669 108.861 82.3118 109.426 76.9751 109.426C75.4607 109.426 74.3764 109.411 73.7525 109.374C73.1286 109.336 72.1927 109.321 70.9448 109.321V130.597C70.9606 130.707 70.955 130.82 70.9281 130.928C70.9013 131.036 70.8539 131.137 70.7885 131.227C70.7232 131.316 70.6413 131.391 70.5475 131.448C70.4537 131.504 70.3499 131.541 70.2421 131.556C70.1649 131.569 70.0862 131.569 70.0089 131.556H57.6304C57.1337 131.547 56.9035 131.264 56.9035 130.696ZM70.9448 74.6006V96.8269C71.8454 96.8994 72.6773 96.9346 73.4405 96.9325H76.8721C79.3971 96.9237 81.9055 96.5129 84.3077 95.7148C86.3669 95.0901 88.2077 93.8716 89.6111 92.2046C90.9619 90.5706 91.6373 88.2926 91.6373 85.3705C91.6898 83.3072 91.1642 81.2718 90.1229 79.5056C89.0317 77.7972 87.4539 76.4751 85.604 75.7189C83.1927 74.7584 80.6177 74.3052 78.0321 74.3863C76.3663 74.3863 74.8933 74.4039 73.6132 74.4391C72.333 74.4743 71.4486 74.5281 70.96 74.6006H70.9448Z" fill="white"/>
<path d="M145.982 92.7856C144.028 91.7547 141.947 91.0012 139.795 90.5458C137.424 89.9871 135 89.7006 132.568 89.6916C131.253 89.6555 129.939 89.8178 128.67 90.1731C127.861 90.3568 127.142 90.829 126.641 91.5057C126.302 92.0469 126.122 92.6767 126.123 93.3199C126.141 93.9435 126.361 94.5432 126.747 95.0253C127.354 95.7542 128.096 96.3519 128.93 96.7835C130.412 97.5995 131.939 98.3256 133.504 98.958C136.994 100.157 140.329 101.786 143.435 103.81C145.55 105.181 147.3 107.068 148.53 109.302C149.566 111.421 150.086 113.766 150.044 116.136C150.105 119.262 149.235 122.332 147.548 124.937C145.742 127.578 143.233 129.632 140.322 130.854C137.16 132.279 133.257 132.992 128.612 132.992C125.664 133.02 122.72 132.734 119.829 132.137C117.551 131.709 115.333 130.992 113.226 130.003C112.998 129.883 112.809 129.699 112.679 129.473C112.55 129.246 112.487 128.986 112.496 128.723V117.208C112.483 117.095 112.501 116.981 112.547 116.877C112.592 116.774 112.665 116.685 112.757 116.621C112.846 116.569 112.949 116.546 113.051 116.555C113.154 116.565 113.251 116.606 113.329 116.674C115.819 118.179 118.523 119.277 121.343 119.926C123.827 120.566 126.376 120.905 128.937 120.939C131.36 120.939 133.145 120.619 134.291 119.979C134.808 119.736 135.244 119.346 135.549 118.854C135.853 118.362 136.012 117.79 136.006 117.208C136.006 116.282 135.486 115.393 134.446 114.54C133.406 113.686 131.29 112.661 128.098 111.464C124.833 110.299 121.737 108.685 118.896 106.665C116.864 105.217 115.19 103.302 114.008 101.073C112.983 98.9725 112.464 96.6504 112.493 94.3015C112.484 91.4719 113.241 88.6952 114.68 86.2808C116.315 83.628 118.662 81.5168 121.44 80.2015C124.489 78.638 128.302 77.8562 132.877 77.8562C135.557 77.8331 138.235 78.0284 140.885 78.4402C142.803 78.6932 144.679 79.2158 146.458 79.9934C146.599 80.035 146.729 80.1097 146.837 80.2115C146.946 80.3134 147.029 80.4398 147.082 80.5805C147.152 80.8404 147.187 81.1091 147.185 81.3789V92.1519C147.193 92.2764 147.17 92.4009 147.117 92.5132C147.063 92.6255 146.983 92.7215 146.882 92.7918C146.742 92.8622 146.588 92.8983 146.431 92.8972C146.275 92.8961 146.122 92.8579 145.982 92.7856Z" fill="white"/>
</g>
<rect x="25" y="25" width="149" height="149" stroke="white" stroke-width="6" stroke-linejoin="round"/>
<defs>
<clipPath id="clip0_132_1050">
<rect x="22" y="22" width="155" height="155" fill="white"/>
</clipPath>
</defs>
</svg>
