<svg width="199" height="201" viewBox="0 0 199 201" fill="none" xmlns="http://www.w3.org/2000/svg">
<rect width="199" height="201" rx="25" fill="#334462"/>
<path d="M99.3551 115.64C107.651 115.64 114.377 108.915 114.377 100.618C114.377 92.322 107.651 85.5964 99.3551 85.5964C91.0587 85.5964 84.3332 92.322 84.3332 100.618C84.3332 108.915 91.0587 115.64 99.3551 115.64Z" fill="white"/>
<path d="M99.3551 155.86C111.146 167.329 122.776 174.113 132.145 174.113C135.214 174.113 138.121 173.467 140.544 172.013C148.944 167.167 152.013 155.053 149.105 137.769C148.621 134.7 147.974 131.631 147.167 128.401C150.397 127.432 153.305 126.463 156.212 125.493C172.526 119.194 181.572 110.472 181.572 100.941C181.572 91.2499 172.526 82.5275 156.212 76.3895C153.305 75.2589 150.397 74.2897 147.167 73.4821C147.974 70.2516 148.621 67.1826 149.105 64.1136C151.851 46.5072 148.782 34.2313 140.383 29.3855C137.96 27.9317 135.052 27.2856 131.983 27.2856C122.776 27.2856 110.985 34.0697 99.1936 45.5381C87.5637 34.0697 75.9338 27.2856 66.5653 27.2856C63.4963 27.2856 60.5889 27.9317 58.166 29.3855C49.7666 34.2313 46.6976 46.3457 49.6051 63.629C50.0897 66.698 50.7358 69.767 51.5434 72.9975C48.3129 73.9667 45.4054 74.9358 42.4979 75.905C26.1838 82.2045 17.1384 90.9269 17.1384 100.457C17.1384 110.148 26.1838 118.871 42.4979 125.009C45.4054 126.14 48.3129 127.109 51.5434 127.916C50.7358 131.147 50.0897 134.216 49.6051 137.285C46.8591 154.568 49.9281 166.844 58.166 171.528C60.5889 172.982 63.4963 173.628 66.5653 173.628C75.9338 173.951 87.5637 167.167 99.3551 155.86ZM90.3096 134.054C93.2171 134.216 96.2861 134.216 99.3551 134.216C102.424 134.216 105.493 134.216 108.401 134.054C105.493 137.931 102.424 141.485 99.3551 144.877C96.2861 141.485 93.2171 137.931 90.3096 134.054ZM70.2804 117.417C71.8957 120.163 73.3494 122.747 75.1262 125.332C70.1189 124.686 65.4346 123.878 60.9119 122.909C62.3656 118.548 63.9809 114.025 65.9192 109.502C67.2114 112.087 68.6652 114.833 70.2804 117.417ZM60.9119 78.4894C65.4346 77.5202 70.1189 76.7126 75.1262 76.0665C73.5109 78.6509 71.8957 81.2353 70.2804 83.9813C68.6652 86.7272 67.2114 89.3116 65.9192 92.0576C63.8194 87.3733 62.2041 82.8506 60.9119 78.4894ZM69.7958 100.618C71.8957 96.2572 74.157 91.896 76.7415 87.5348C79.1643 83.3352 81.9103 79.1355 84.6562 74.9358C89.502 74.6128 94.3478 74.4512 99.3551 74.4512C104.524 74.4512 109.37 74.6128 114.054 74.9358C116.961 79.1355 119.546 83.3352 121.969 87.5348C124.553 91.896 126.815 96.2572 128.914 100.618C126.815 104.98 124.553 109.341 121.969 113.702C119.546 117.902 116.8 122.101 114.054 126.301C109.208 126.624 104.362 126.786 99.3551 126.786C94.1863 126.786 89.3405 126.624 84.6562 126.301C81.7488 122.101 79.1643 117.902 76.7415 113.702C74.157 109.341 71.8957 104.98 69.7958 100.618ZM132.952 91.896L128.591 83.8197C126.976 81.0738 125.522 78.4894 123.746 75.905C128.753 76.5511 133.437 77.3587 137.96 78.3279C136.506 82.8506 134.891 87.3733 132.952 91.896ZM132.952 109.341C134.891 113.864 136.506 118.386 137.96 122.748C133.437 123.717 128.753 124.524 123.746 125.17C125.361 122.586 126.976 120.002 128.591 117.256C130.045 114.833 131.499 112.087 132.952 109.341ZM136.668 165.39C135.375 166.198 133.76 166.521 131.983 166.521C124.069 166.521 114.215 160.06 104.524 150.368C109.208 145.361 113.731 139.708 118.254 133.408C125.845 132.762 133.114 131.631 139.898 130.016C140.706 132.924 141.19 135.831 141.675 138.739C143.936 152.468 142.159 162.321 136.668 165.39ZM145.067 80.2662C163.158 85.435 173.98 93.3498 173.98 100.618C173.98 106.918 166.55 113.217 153.466 118.225C150.882 119.194 147.974 120.163 145.067 120.971C142.967 114.348 140.383 107.564 137.152 100.618C140.383 93.6728 143.129 86.8887 145.067 80.2662ZM132.145 34.7158C133.922 34.7158 135.375 35.0389 136.829 35.8465C142.159 38.9155 144.098 48.6071 141.836 62.4983C141.352 65.2442 140.706 68.1517 140.06 71.2207C133.276 69.767 126.007 68.6363 118.415 67.8287C114.054 61.5292 109.37 55.8757 104.685 50.8684C114.377 41.3384 124.23 34.7158 132.145 34.7158ZM108.401 67.1826C105.493 67.021 102.424 67.021 99.3551 67.021C96.2861 67.021 93.2171 67.021 90.3096 67.1826C93.2171 63.3059 96.2861 59.7524 99.3551 56.3603C102.424 59.7524 105.493 63.4675 108.401 67.1826ZM62.0426 35.8465C63.3348 35.0389 64.9501 34.7158 66.7268 34.7158C74.6416 34.7158 84.4947 41.1769 94.1862 50.8684C89.502 55.8757 84.9793 61.5292 80.4565 67.8287C72.8648 68.4748 65.5962 69.6054 58.8121 71.2207C58.0044 68.3132 57.5199 65.4058 57.0353 62.4983C54.7739 48.7686 56.5507 39.077 62.0426 35.8465ZM53.6432 120.971C35.5523 115.802 24.7301 107.887 24.7301 100.618C24.7301 94.3189 32.1603 88.0194 45.2439 83.0121C47.8283 82.043 50.7358 81.0738 53.6432 80.2662C55.7431 86.8887 58.3275 93.6728 61.558 100.618C58.3275 107.564 55.5815 114.51 53.6432 120.971ZM57.0353 138.739C57.5199 135.993 58.166 133.085 58.8121 130.016C65.5962 131.47 72.8648 132.601 80.4565 133.408C84.8177 139.708 89.502 145.361 94.1862 150.368C84.4947 159.898 74.6416 166.521 66.7268 166.521C64.9501 166.521 63.4963 166.198 62.0426 165.39C56.5507 162.321 54.7739 152.468 57.0353 138.739Z" fill="white"/>
</svg>
