<svg width="200" height="199" viewBox="0 0 200 199" fill="none" xmlns="http://www.w3.org/2000/svg">
<rect width="200" height="199" rx="25" fill="#334462"/>
<g clipPath="url(#clip0_101_666)">
<path d="M118.703 116.59L115.558 121.891C115.092 122.676 114.422 123.327 113.614 123.78C112.807 124.233 111.891 124.472 110.958 124.472H86.8624C85.9296 124.472 85.0133 124.233 84.2057 123.78C83.3982 123.327 82.7278 122.676 82.2621 121.891L79.1165 116.59H118.703ZM127.508 101.749L121.963 111.096H75.8575L70.3118 101.749H127.508ZM122.166 87.2361L127.517 96.2551H70.3028L75.6538 87.2361H122.166ZM110.957 73.5168C111.89 73.5168 112.806 73.7554 113.614 74.2084C114.422 74.6615 115.092 75.3131 115.558 76.0977L118.907 81.7425H78.9134L82.2627 76.0977C82.7284 75.3132 83.3988 74.6616 84.2064 74.2086C85.014 73.7555 85.9302 73.5169 86.863 73.5168H110.957Z" fill="#00435B"/>
<path d="M51.7954 71.0569C49.1263 58.494 48.553 48.8583 50.2786 41.8618C51.3048 37.7005 53.1802 34.3058 56.0331 31.8562C59.0449 29.2704 62.8522 28.0014 67.1309 28.0014C74.1883 28.0014 81.6081 31.1256 89.5366 37.0601C92.7713 39.4812 96.1276 42.399 99.6134 45.8155C99.8914 45.4692 100.205 45.1421 100.554 44.8393C110.409 36.3153 118.707 31.0181 125.804 28.9763C130.024 27.7614 133.985 27.6458 137.593 28.8246C141.401 30.0681 144.436 32.6402 146.577 36.2419C150.11 42.1864 151.041 49.9973 149.724 59.6423C149.188 63.5736 148.27 67.8555 146.973 72.4956C147.462 72.5528 147.953 72.6585 148.438 72.8145C160.942 76.8372 169.797 81.162 175.157 86.1054C178.347 89.0463 180.429 92.3203 181.183 95.9451C181.977 99.7706 181.202 103.607 179.064 107.207C175.537 113.143 169.052 117.824 159.815 121.532C156.106 123.021 151.909 124.37 147.219 125.583C147.433 126.052 147.6 126.55 147.711 127.072C150.38 139.635 150.952 149.27 149.227 156.267C148.201 160.428 146.325 163.823 143.472 166.273C140.461 168.858 136.653 170.127 132.375 170.127C125.317 170.127 117.898 167.003 109.969 161.069C106.7 158.621 103.307 155.668 99.7806 152.204C99.4096 152.767 98.9604 153.278 98.4457 153.722C88.5905 162.247 80.2931 167.543 73.1961 169.586C68.9763 170.801 65.0146 170.916 61.4072 169.737C57.5986 168.494 54.5644 165.922 52.4231 162.32C48.89 156.376 47.9586 148.565 49.2756 138.92C49.8322 134.847 50.7975 130.396 52.1695 125.562C51.6226 125.508 51.0834 125.396 50.5617 125.228C38.058 121.205 29.2033 116.88 23.8428 111.937C20.6529 108.996 18.5706 105.722 17.8173 102.097C17.0231 98.2716 17.7981 94.4343 19.9362 90.835C23.4629 84.8993 29.9476 80.2176 39.1853 76.5101C43.0048 74.9763 47.3418 73.5923 52.2009 72.3513C52.0256 71.9326 51.8899 71.4994 51.7954 71.0569Z" fill="white"/>
<path d="M138.987 128.307C139.583 128.204 140.198 128.329 140.703 128.654C141.208 128.979 141.565 129.481 141.699 130.054L141.714 130.124L141.847 130.792C146.145 152.725 143.117 163.691 132.764 163.691C122.635 163.691 109.741 154.334 94.0811 135.618C93.8029 135.285 93.6264 134.884 93.5716 134.459C93.5169 134.033 93.5861 133.602 93.7714 133.213C93.9566 132.824 94.2506 132.494 94.6197 132.259C94.9889 132.024 95.4186 131.894 95.8599 131.885H95.9329L96.7579 131.89C103.348 131.925 109.754 131.702 115.976 131.221C123.321 130.653 130.991 129.682 138.987 128.307ZM67.8874 111.728L67.9271 111.793L68.3409 112.494C71.6567 118.089 75.1112 123.401 78.7046 128.427C82.9372 134.346 87.6963 140.338 92.982 146.404C93.3743 146.854 93.5727 147.434 93.5358 148.022C93.499 148.611 93.2297 149.163 92.784 149.564L92.7245 149.615L92.1928 150.06C74.7022 164.607 63.3341 167.511 58.0886 158.772C52.9537 150.218 54.8153 134.665 63.6733 112.112C63.8302 111.712 64.0991 111.363 64.4497 111.105C64.8004 110.846 65.2186 110.687 65.6572 110.647C66.0958 110.607 66.5371 110.687 66.9313 110.878C67.3254 111.069 67.6566 111.364 67.8874 111.728ZM147.862 79.3637L147.934 79.3868L148.592 79.6069C170.181 86.897 178.383 94.9081 173.199 103.64C168.128 112.181 153.387 118.399 128.976 122.295C128.533 122.366 128.079 122.312 127.667 122.142C127.255 121.971 126.901 121.689 126.647 121.331C126.394 120.972 126.251 120.55 126.235 120.115C126.219 119.68 126.332 119.25 126.559 118.875C130.056 113.102 133.205 107.357 136.006 101.642C139.183 95.1601 142.165 88.2028 144.951 80.7701C145.154 80.2299 145.558 79.7833 146.084 79.519C146.61 79.2546 147.219 79.1919 147.79 79.3432L147.862 79.3637ZM71.6024 75.6936C71.8696 75.8459 72.1033 76.0479 72.2901 76.2879C72.4768 76.5278 72.6131 76.8012 72.691 77.0923C72.7689 77.3834 72.787 77.6866 72.7442 77.9845C72.7014 78.2823 72.5985 78.5691 72.4415 78.8284C68.9442 84.6011 65.795 90.3453 62.9937 96.0612C59.8167 102.543 56.8351 109.5 54.0488 116.933C53.8419 117.485 53.4245 117.939 52.8828 118.2C52.3412 118.462 51.7166 118.512 51.1382 118.339L51.0665 118.316L50.408 118.096C28.8192 110.806 20.6171 102.795 25.8015 94.0629C30.8719 85.5223 45.6128 79.3039 70.0242 75.4076C70.5686 75.3206 71.1272 75.4219 71.6024 75.6936ZM140.911 39.7888C146.046 48.3427 144.185 63.8961 135.327 86.4491C135.17 86.8487 134.901 87.1976 134.55 87.4565C134.2 87.7153 133.781 87.8737 133.343 87.9137C132.904 87.9537 132.463 87.8737 132.069 87.6827C131.675 87.4918 131.343 87.1976 131.113 86.8333L131.073 86.768L130.659 86.0673C127.343 80.4717 123.889 75.1606 120.295 70.134C116.063 64.2151 111.304 58.2228 106.018 52.1571C105.626 51.7069 105.427 51.1272 105.464 50.5387C105.501 49.9502 105.77 49.3981 106.216 48.9974L106.275 48.9458L106.807 48.5012C124.298 33.9546 135.666 31.0505 140.911 39.7888ZM67.1213 34.5842C77.2506 34.5842 90.1449 43.9418 105.804 62.657C106.082 62.9896 106.259 63.3913 106.314 63.8165C106.368 64.2416 106.299 64.6732 106.114 65.062C105.929 65.4509 105.635 65.7816 105.265 66.0164C104.896 66.2513 104.467 66.3809 104.025 66.3905H103.952L103.127 66.3856C96.538 66.3507 90.1321 66.5737 83.9095 67.0546C76.564 67.6224 68.8936 68.5938 60.8986 69.9687C60.3019 70.0711 59.6875 69.9469 59.1826 69.6216C58.6777 69.2964 58.3211 68.7951 58.1866 68.2216L58.1712 68.1513L58.0386 67.4836C53.7402 45.5507 56.7678 34.5842 67.1213 34.5842Z" fill="#334462"/>
<path d="M88.8 73.8035H109.025C110.478 73.8034 111.906 74.1756 113.163 74.8825C114.421 75.5893 115.464 76.6058 116.187 77.8292L126.343 95.0054C127.061 96.2196 127.438 97.5951 127.438 98.9951C127.438 100.395 127.061 101.771 126.343 102.985L116.187 120.161C115.464 121.384 114.421 122.401 113.163 123.108C111.906 123.815 110.478 124.187 109.025 124.187H88.8C85.842 124.187 83.1102 122.651 81.6376 120.161L71.4833 102.985C70.7653 101.771 70.3875 100.395 70.3875 98.9951C70.3875 97.5951 70.7653 96.2196 71.4833 95.0054L81.6383 77.8292C82.3615 76.6057 83.4046 75.5892 84.6622 74.8823C85.9199 74.1754 87.3468 73.8033 88.8 73.8035ZM105.943 78.9875C108.902 78.9875 111.636 80.5251 113.107 83.017L120.189 95.0091C120.906 96.2224 121.283 97.5966 121.283 98.9951C121.283 100.394 120.906 101.768 120.189 102.981L113.107 114.973C112.384 116.198 111.341 117.215 110.083 117.922C108.825 118.63 107.397 119.002 105.943 119.002H91.8835C88.9243 119.002 86.1905 117.465 84.7192 114.973L77.6375 102.981C76.9209 101.768 76.5439 100.394 76.5439 98.9951C76.5439 97.5966 76.9209 96.2224 77.6375 95.0091L84.7192 83.017C85.4421 81.7927 86.4853 80.7755 87.7432 80.068C89.0011 79.3606 90.4291 78.9881 91.8829 78.9882L105.943 78.9875ZM102.621 84.6578H95.2059C93.7533 84.6576 92.3264 85.0295 91.0692 85.7357C89.8119 86.442 88.7689 87.4578 88.0455 88.6804L84.3035 95.0017C83.5841 96.2167 83.2055 97.5937 83.2055 98.9951C83.2055 100.397 83.5841 101.773 84.3035 102.989L88.0455 109.31C88.7689 110.533 89.8119 111.549 91.0692 112.255C92.3264 112.961 93.7533 113.333 95.2059 113.333H102.621C105.577 113.333 108.309 111.799 109.781 109.31L113.523 102.989C114.243 101.773 114.621 100.397 114.621 98.9951C114.621 97.5937 114.243 96.2167 113.523 95.0017L109.781 88.6798C109.058 87.4572 108.015 86.4414 106.757 85.7351C105.5 85.0288 104.073 84.6576 102.621 84.6578ZM99.4219 90.0843C102.376 90.0843 105.105 91.6163 106.578 94.1008L107.109 94.9961C107.831 96.2123 108.21 97.5911 108.21 98.9945C108.21 100.398 107.831 101.777 107.109 102.993L106.578 103.888C105.855 105.109 104.812 106.123 103.555 106.828C102.299 107.534 100.873 107.905 99.4219 107.905H98.4047C96.9534 107.905 95.5277 107.534 94.2712 106.828C93.0148 106.123 91.9721 105.109 91.2481 103.888L90.7171 102.993C89.9958 101.777 89.6161 100.398 89.6161 98.9945C89.6161 97.5911 89.9958 96.2123 90.7171 94.9961L91.2481 94.1008C91.9721 92.8798 93.0148 91.8657 94.2712 91.1605C95.5277 90.4554 96.9534 90.0842 98.4047 90.0843H99.4219ZM98.9146 95.4307C98.2696 95.4305 97.6358 95.5951 97.0771 95.9079C96.5183 96.2206 96.0541 96.6706 95.7312 97.2126C95.4088 97.7543 95.2391 98.3689 95.2391 98.9945C95.2391 99.6201 95.4088 100.235 95.7312 100.776C96.0538 101.319 96.5177 101.769 97.0764 102.082C97.635 102.395 98.2686 102.559 98.9136 102.559C99.5586 102.559 100.192 102.395 100.751 102.082C101.309 101.769 101.773 101.319 102.096 100.776C102.418 100.235 102.588 99.6201 102.588 98.9945C102.588 98.3689 102.418 97.7543 102.096 97.2126C101.773 96.6709 101.309 96.2211 100.751 95.9083C100.193 95.5956 99.5593 95.4309 98.9146 95.4307ZM69.1243 98.9945H75.7345Z" fill="#334462"/>
</g>
<defs>
<clipPath id="clip0_101_666">
<rect width="165" height="143" fill="white" transform="translate(17 28)"/>
</clipPath>
</defs>
</svg>
