<svg width="200" height="200" viewBox="0 0 200 200" fill="none" xmlns="http://www.w3.org/2000/svg">
<rect width="200" height="200" rx="25" fill="#334462"/>
<g clipPath="url(#clip0_131_1043)">
<path d="M174 26H26V174H174V26Z" fill="#334462"/>
<path d="M71.5828 64.3445C71.5828 77.0615 79.5763 84.6281 95.5793 88.6181L112.537 92.4809C127.683 95.8987 136.906 104.387 136.906 118.217C137.024 124.242 135.03 130.124 131.259 134.876C131.259 121.078 123.993 113.623 106.469 109.14L89.8189 105.42C76.4857 102.432 66.1945 95.4535 66.1945 80.4315C66.1243 74.6305 68.0199 68.9712 71.5828 64.3445Z" fill="white"/>
<path d="M120.838 114.831C128.071 119.377 131.242 125.736 131.242 134.86C125.256 142.395 114.738 146.623 102.376 146.623C81.5666 146.623 67.0036 136.561 63.7674 119.075H83.751C86.3239 127.103 93.136 130.823 102.23 130.823C113.33 130.823 120.709 125.005 120.854 114.799" fill="#D0D0D0"/>
<path d="M81.9711 83.1977C78.6683 81.2693 75.9585 78.4985 74.1295 75.1791C72.3006 71.8598 71.4204 68.1158 71.5829 64.3447C77.3595 56.8735 87.4079 52.3113 99.657 52.3113C120.854 52.3113 133.12 63.3115 136.145 78.7945H116.922C114.802 72.6903 109.495 67.9373 99.8188 67.9373C89.4791 67.9373 82.4241 73.8507 82.0196 83.1977" fill="#D0D0D0"/>
</g>
<defs>
<clipPath id="clip0_131_1043">
<rect width="148" height="148" fill="white" transform="translate(26 26)"/>
</clipPath>
</defs>
</svg>
