<svg width="199" height="201" viewBox="0 0 199 201" fill="none" xmlns="http://www.w3.org/2000/svg">
<rect width="199" height="201" rx="25" fill="#334462"/>
<path d="M152.999 108.812C147.812 108.835 143.32 110.086 139.569 111.938C138.202 109.182 136.789 106.774 136.558 104.968C136.28 102.861 135.979 101.611 136.303 99.1098C136.628 96.6083 138.086 93.0653 138.063 92.8111C138.04 92.5565 137.739 91.2826 134.752 91.2594C131.765 91.2365 129.195 91.8381 128.894 92.6254C128.592 93.4127 128.014 95.1962 127.666 97.0485C127.134 99.7578 121.692 109.437 118.612 114.485C117.593 112.518 116.736 110.78 116.551 109.391C116.273 107.283 115.972 106.033 116.296 103.533C116.62 101.031 118.079 97.4881 118.056 97.2338C118.033 96.9793 117.732 95.7053 114.745 95.6821C111.757 95.6593 109.188 96.2609 108.886 97.0485C108.585 97.8355 108.261 99.6882 107.659 101.472C107.057 103.254 99.8087 119.371 97.9099 123.563C96.937 125.692 96.104 127.406 95.5016 128.565C95.4095 128.749 95.3399 128.866 95.2935 128.958C95.3627 128.843 95.4095 128.726 95.4095 128.773C94.9 129.768 94.5986 130.324 94.5986 130.324V130.347C94.2048 131.088 93.7649 131.759 93.5568 131.759C93.4175 131.759 93.1169 129.815 93.6264 127.152C94.7143 121.548 97.2847 112.842 97.2615 112.54C97.2383 112.378 97.7475 110.873 95.5709 110.062C93.464 109.298 92.6995 110.572 92.5146 110.572C92.3296 110.572 92.1904 111.036 92.1904 111.036C92.1904 111.036 94.5294 101.217 87.698 101.217C83.4373 101.217 77.5095 105.895 74.5921 110.133C72.7626 111.128 68.8026 113.282 64.6347 115.574C63.0369 116.454 61.3927 117.357 59.8413 118.214C59.7256 118.098 59.6328 117.982 59.5171 117.866C51.2272 109.021 35.9208 102.769 36.5696 90.8891C36.801 86.5588 38.3063 75.1896 66.0011 61.3882C88.6944 50.088 106.849 53.1911 109.975 60.0914C114.467 69.9331 100.272 88.2497 76.6994 90.8891C67.7146 91.8849 62.9912 88.4115 61.8101 87.115C60.5825 85.7489 60.3972 85.679 59.9341 85.9339C59.1697 86.3506 59.6564 87.5549 59.9341 88.2726C60.629 90.1018 63.5232 93.3438 68.4558 94.9648C72.7855 96.3773 83.3219 97.1649 96.0575 92.2323C110.368 86.7209 121.507 71.3682 118.241 58.5169C114.907 45.457 93.2561 41.1728 72.7629 48.4438C60.5597 52.7741 47.3606 59.5823 37.8664 68.4507C26.5893 79.0104 24.7833 88.203 25.5239 92.0473C28.1639 105.686 46.9665 114.578 54.4924 121.154C54.1218 121.363 53.7744 121.548 53.4505 121.733C49.6761 123.609 35.3424 131.111 31.753 139.032C27.7011 148.016 32.4243 154.453 35.5274 155.333C45.2066 158.019 55.1176 153.18 60.4437 145.237C65.7691 137.295 65.121 126.921 62.6666 122.197C62.6431 122.127 62.597 122.081 62.5741 122.011C63.5464 121.433 64.5419 120.854 65.538 120.275C67.4597 119.14 69.3356 118.098 70.9795 117.195C70.053 119.696 69.3817 122.705 69.0343 127.06C68.6176 132.154 70.7249 138.753 73.4574 141.347C74.661 142.482 76.1199 142.505 77.0232 142.505C80.2188 142.505 81.6542 139.865 83.252 136.716C85.2204 132.871 86.9571 128.402 86.9571 128.402C86.9571 128.402 84.7805 140.49 90.7315 140.49C92.908 140.49 95.0853 137.688 96.0572 136.252V136.275C96.0572 136.275 96.104 136.183 96.2196 135.998C96.451 135.65 96.5667 135.442 96.5667 135.442V135.372C97.4465 133.867 99.3688 130.417 102.263 124.721C106.015 117.356 109.603 108.163 109.603 108.163C109.603 108.163 109.928 110.41 111.04 114.138C111.688 116.338 113.054 118.746 114.142 121.085C113.263 122.289 112.73 122.984 112.73 122.984C112.73 122.984 112.73 123.007 112.752 123.03C112.058 123.957 111.271 124.953 110.46 125.925C107.496 129.445 103.976 133.474 103.513 134.632C102.957 135.998 103.096 137.016 104.162 137.804C104.949 138.407 106.338 138.499 107.797 138.383C110.46 138.197 112.336 137.55 113.239 137.132C114.674 136.623 116.342 135.812 117.917 134.678C120.811 132.548 122.571 129.491 122.409 125.462C122.316 123.239 121.598 121.016 120.718 118.932C120.973 118.561 121.251 118.167 121.506 117.774C126.091 111.081 129.634 103.742 129.634 103.742C129.634 103.742 129.958 105.987 131.069 109.716C131.625 111.591 132.713 113.652 133.709 115.666C129.402 119.163 126.739 123.216 125.813 125.878C124.099 130.811 125.442 133.033 127.966 133.544C129.101 133.775 130.722 133.242 131.926 132.733C133.431 132.223 135.237 131.413 136.928 130.162C139.822 128.032 142.624 125.045 142.439 120.993C142.369 119.163 141.86 117.334 141.189 115.574C144.824 114.046 149.548 113.212 155.569 113.907C168.467 115.412 170.99 123.47 170.504 126.827C170.018 130.209 167.309 132.061 166.406 132.617C165.502 133.173 165.225 133.381 165.295 133.798C165.41 134.4 165.827 134.377 166.591 134.238C167.657 134.053 173.353 131.505 173.607 125.276C173.978 117.403 166.407 108.743 152.999 108.812ZM53.5894 142.319C49.329 146.974 43.3545 148.734 40.7845 147.251C38.0288 145.654 39.1171 138.8 44.3736 133.844C47.5691 130.834 51.6909 128.055 54.4234 126.342C55.0486 125.972 55.9519 125.416 57.0634 124.744C57.2487 124.629 57.3412 124.582 57.3412 124.582C57.5494 124.443 57.7811 124.327 58.0128 124.188C59.9341 131.228 58.0818 137.433 53.5894 142.319ZM84.7115 121.154C83.2294 124.789 80.1031 134.052 78.205 133.566C76.584 133.149 75.5879 126.087 77.8808 119.14C79.0384 115.643 81.4928 111.475 82.952 109.855C85.2903 107.238 87.8607 106.404 88.463 107.446C89.2732 108.812 85.6374 118.885 84.7115 121.154ZM110.414 133.428C109.79 133.752 109.21 133.96 108.933 133.798C108.725 133.682 109.188 133.242 109.188 133.242C109.188 133.242 112.406 129.792 113.68 128.216C114.421 127.291 115.277 126.202 116.204 124.998C116.204 125.113 116.226 125.23 116.226 125.368C116.204 129.514 112.221 132.316 110.414 133.428ZM130.237 128.912C129.774 128.588 129.843 127.499 131.394 124.118C131.997 122.798 133.386 120.576 135.794 118.445C136.072 119.325 136.234 120.158 136.234 120.945C136.21 126.156 132.483 128.101 130.237 128.912Z" fill="white"/>
</svg>
