<svg width="199" height="201" viewBox="0 0 199 201" fill="none" xmlns="http://www.w3.org/2000/svg">
<rect width="199" height="201" rx="25" fill="#334462"/>
<g clipPath="url(#clip0_101_669)">
<path d="M99.5007 45.5C88.215 45.5 78.5123 48.546 70.8963 55.0741C63.335 61.5552 58.3885 70.9902 55.6445 82.7502C55.0456 85.3167 56.3516 87.9474 58.7581 89.0219C61.1646 90.0965 63.9951 89.313 65.5064 87.1539C68.9893 82.1784 72.4668 79.1887 75.8082 77.6544C79.0442 76.1686 82.5323 75.8675 86.5276 76.9377C90.5595 78.0177 93.6807 81.1806 98.5807 86.5098L98.739 86.682C102.433 90.6996 106.939 95.6006 113.101 99.4031C119.496 103.349 127.454 106 138.001 106C149.286 106 158.989 102.954 166.605 96.4258C174.166 89.9447 179.112 80.5097 181.857 68.7497C182.455 66.1832 181.15 63.5525 178.743 62.4779C176.337 61.4034 173.506 62.1868 171.994 64.3459C168.512 69.3215 165.035 72.3111 161.693 73.8455C158.457 75.3313 154.969 75.6324 150.973 74.5622C146.942 73.4822 143.82 70.3193 138.921 64.99L138.762 64.8178C135.068 60.8002 130.563 55.8992 124.4 52.0968C118.005 48.1511 110.047 45.5 99.5007 45.5Z" fill="white"/>
<path d="M61.0007 95C49.715 95 40.0123 98.046 32.3963 104.574C24.835 111.055 19.8885 120.49 17.1445 132.251C16.5456 134.817 17.8516 137.447 20.258 138.522C22.6645 139.596 25.495 138.813 27.0064 136.654C30.4893 131.679 33.9668 128.689 37.3082 127.154C40.5442 125.669 44.0322 125.367 48.0276 126.438C52.0595 127.518 55.1807 130.681 60.0807 136.01L60.239 136.182C63.9326 140.199 68.4386 145.101 74.6014 148.903C80.9963 152.849 88.9541 155.5 99.5007 155.5C110.786 155.5 120.489 152.454 128.106 145.926C135.666 139.445 140.613 130.01 143.357 118.25C143.955 115.683 142.65 113.053 140.243 111.978C137.837 110.903 135.006 111.687 133.494 113.846C130.012 118.821 126.534 121.811 123.193 123.345C119.957 124.831 116.469 125.132 112.474 124.062C108.442 122.982 105.321 119.819 100.421 114.49L100.262 114.318C96.5686 110.3 92.0627 105.399 85.8998 101.597C79.505 97.6511 71.5471 95 61.0007 95Z" fill="white"/>
</g>
<defs>
<clipPath id="clip0_101_669">
<rect width="165" height="165" fill="white" transform="translate(17 18)"/>
</clipPath>
</defs>
</svg>
