<svg width="199" height="201" viewBox="0 0 199 201" fill="none" xmlns="http://www.w3.org/2000/svg">
<rect width="199" height="201" rx="25" fill="#334462"/>
<g clipPath="url(#clip0_101_673)">
<path d="M17 100.5V18H182V183H17" fill="#334462"/>
<path d="M53.1763 100.789V107.513H74.6263V168.563H89.8475V107.513H111.298V100.913C111.298 97.2 111.298 94.1888 111.133 94.1063C111.133 93.9825 98.0563 93.9413 82.175 93.9413L53.3 94.065V100.83L53.1763 100.789ZM149.578 93.9C153.785 94.89 157.003 96.7875 159.89 99.7988C161.416 101.449 163.685 104.336 163.85 105.079C163.85 105.326 156.714 110.153 152.383 112.834C152.218 112.958 151.558 112.256 150.898 111.184C148.753 108.131 146.566 106.811 143.143 106.564C138.193 106.234 134.893 108.833 134.893 113.164C134.893 114.484 135.14 115.226 135.635 116.299C136.749 118.568 138.811 119.929 145.205 122.734C157.003 127.808 162.118 131.149 165.211 135.934C168.718 141.296 169.501 149.711 167.15 156.023C164.51 162.911 158.075 167.573 148.876 169.099C145.989 169.594 139.389 169.511 136.295 168.975C129.695 167.738 123.384 164.438 119.506 160.189C117.98 158.539 115.051 154.125 115.216 153.836L116.784 152.846L122.971 149.258L127.633 146.535L128.705 147.979C130.066 150.124 133.119 153.011 134.893 154.001C140.255 156.765 147.433 156.394 150.98 153.176C152.506 151.774 153.166 150.289 153.166 148.226C153.166 146.329 152.878 145.463 151.929 144.019C150.609 142.204 147.969 140.719 140.544 137.419C132.005 133.789 128.375 131.479 124.993 127.931C123.054 125.786 121.28 122.445 120.455 119.681C119.836 117.289 119.63 111.431 120.208 109.08C121.981 100.83 128.21 95.055 137.12 93.405C140.008 92.8275 146.814 93.075 149.66 93.8175L149.578 93.9Z" fill="white"/>
</g>
<defs>
<clipPath id="clip0_101_673">
<rect width="165" height="165" fill="white" transform="translate(17 18)"/>
</clipPath>
</defs>
</svg>
