<svg width="200" height="200" viewBox="0 0 200 200" fill="none" xmlns="http://www.w3.org/2000/svg">
<rect width="200" height="200" rx="25" fill="#334462"/>
<g clipPath="url(#clip0_132_1051)">
<path d="M167.924 42.3884L137.84 27.9025C134.361 26.2258 130.197 26.933 127.466 29.6647L28.984 119.455C26.3377 121.873 26.3377 126.042 28.9897 128.454L37.0311 135.766C39.1983 137.739 42.4662 137.882 44.7987 136.114L163.395 46.1468C167.376 43.1298 173.091 45.9643 173.091 50.9602V50.6123C173.091 47.1049 171.083 43.9055 167.924 42.3884Z" fill="white"/>
<path d="M167.924 156.861L137.84 171.347C134.361 173.024 130.197 172.317 127.466 169.585L28.984 79.7949C26.3377 77.3825 26.3377 73.2078 28.9897 70.8011L37.0311 63.4897C39.1983 61.5164 42.4662 61.3738 44.7987 63.1418L163.395 153.103C167.376 156.12 173.091 153.285 173.091 148.289V148.637C173.091 152.145 171.083 155.344 167.924 156.861Z" fill="white"/>
<path d="M137.845 171.347C134.361 173.024 130.203 172.317 127.466 169.579C130.83 172.944 136.591 170.56 136.591 165.798V33.4457C136.591 28.6836 130.83 26.2997 127.466 29.6645C130.197 26.9327 134.361 26.2255 137.845 27.8966L167.923 42.3597C171.083 43.8824 173.096 47.0762 173.096 50.5836V148.66C173.096 152.168 171.089 155.361 167.923 156.884L137.845 171.347Z" fill="white"/>
<g opacity="0.25">
<path fillRule="evenodd" clipRule="evenodd" d="M130.534 171.627C132.832 172.522 135.456 172.465 137.777 171.347L167.838 156.884C170.997 155.367 173.005 152.168 173.005 148.66V50.5895C173.005 47.082 170.997 43.8883 167.838 42.3656L137.777 27.9024C134.731 26.4367 131.167 26.796 128.492 28.7408C128.11 29.0202 127.745 29.3282 127.403 29.6704L69.8583 82.1677L44.793 63.1363C42.4605 61.3627 39.1983 61.5109 37.0311 63.4842L28.9897 70.7956C26.3377 73.2081 26.3377 77.377 28.984 79.7952L50.7243 99.6249L28.984 119.455C26.3377 121.873 26.3377 126.042 28.9897 128.454L37.0311 135.766C39.1983 137.739 42.4605 137.881 44.793 136.114L69.8583 117.088L127.403 169.585C128.315 170.492 129.382 171.182 130.534 171.627ZM136.522 66.4841L92.859 99.6249L136.522 132.771V66.4841Z" fill="url(#paint0_linear_132_1051)"/>
</g>
</g>
<defs>
<linearGradient id="paint0_linear_132_1051" x1="100.002" y1="27.0013" x2="100.002" y2="172.249" gradientUnits="userSpaceOnUse">
<stop stop-color="white"/>
<stop offset="1" stop-color="white" stop-opacity="0"/>
</linearGradient>
<clipPath id="clip0_132_1051">
<rect width="146" height="145.248" fill="white" transform="translate(27 27)"/>
</clipPath>
</defs>
</svg>
