<svg width="200" height="200" viewBox="0 0 200 200" fill="none" xmlns="http://www.w3.org/2000/svg">
<rect width="200" height="200" rx="25" fill="#A259FF" fillOpacity="0.4"/>
<path d="M112.534 82.4043C112.534 75.2822 108.065 71.3506 100.216 71.3506H85.7788V94.2959H97.9533C107.349 94.2637 112.534 90.0098 112.534 82.4043ZM165.099 78.2793C162.378 68.3213 161.977 56.1074 162.292 46.665C162.607 36.8359 155.789 27.8125 146.623 27.8125H52.4351C43.2397 27.8125 36.4507 36.8682 36.7658 46.665C37.0522 56.1074 36.6798 68.3213 33.9585 78.2793C31.2085 88.2695 26.5965 94.5859 19.0054 95.3916V104.576C26.5679 105.382 31.2085 111.698 33.9585 121.688C36.6798 131.646 37.0809 143.86 36.7658 153.303C36.4507 163.132 43.2684 172.155 52.4351 172.155H146.594C155.789 172.155 162.578 163.1 162.263 153.303C161.977 143.86 162.349 131.646 165.07 121.688C167.82 111.698 172.432 105.382 179.995 104.576V95.3916C172.461 94.5859 167.82 88.2695 165.099 78.2793ZM102.995 138.382H74.9507V61.5859H102.852C115.255 61.5859 123.391 69.127 123.391 80.7285C123.391 88.8818 117.919 96.165 110.93 97.4219V97.8408C120.44 99.001 126.828 106.413 126.828 116.629C126.828 130.196 117.862 138.382 102.995 138.382ZM100.13 103.352H85.7788V128.617H100.761C110.557 128.617 115.742 124.202 115.742 115.888C115.742 107.605 110.414 103.352 100.13 103.352Z" fill="#8512F6"/>
</svg>
