<svg width="200" height="200" viewBox="0 0 200 200" fill="none" xmlns="http://www.w3.org/2000/svg">
<rect width="200" height="200" rx="25" fill="#A259FF" fillOpacity="0.5"/>
<path d="M75.5832 168.75C88.2332 168.75 98.4998 158.483 98.4998 145.833V122.917H75.5832C62.9332 122.917 52.6665 133.183 52.6665 145.833C52.6665 158.483 62.9332 168.75 75.5832 168.75Z" fill="#0ACF83"/>
<path d="M52.6665 100C52.6665 87.35 62.9332 77.0833 75.5832 77.0833H98.4998V122.917H75.5832C62.9332 122.917 52.6665 112.65 52.6665 100Z" fill="#A259FF"/>
<path d="M52.6665 54.1667C52.6665 41.5167 62.9332 31.25 75.5832 31.25H98.4998V77.0833H75.5832C62.9332 77.0833 52.6665 66.8167 52.6665 54.1667Z" fill="#F24E1E"/>
<path d="M98.5 31.25H121.417C134.067 31.25 144.333 41.5167 144.333 54.1667C144.333 66.8167 134.067 77.0833 121.417 77.0833H98.5V31.25Z" fill="#FF7262"/>
<path d="M144.333 100C144.333 112.65 134.067 122.917 121.417 122.917C108.767 122.917 98.5 112.65 98.5 100C98.5 87.35 108.767 77.0833 121.417 77.0833C134.067 77.0833 144.333 87.35 144.333 100Z" fill="#1ABCFE"/>
</svg>
