<svg width="200" height="200" viewBox="0 0 200 200" fill="none" xmlns="http://www.w3.org/2000/svg">
<rect width="200" height="200" rx="25" fill="#FFCA28" fillOpacity="0.59"/>
<path d="M112.725 83.7507L101.015 94.6462L90.1499 72.7305L95.7722 60.1274C97.1953 57.6008 99.5172 57.596 100.94 60.1274L112.725 83.7507Z" fill="#FFA000"/>
<path d="M101.015 94.6459L57.2588 135.352L90.1499 72.7302L101.015 94.6459Z" fill="#F57F17"/>
<path d="M125.531 67.097C127.623 65.0864 129.786 65.7722 130.337 68.621L141.726 134.806L103.971 157.434C102.649 158.164 99.1506 158.48 99.1506 158.48C99.1506 158.48 95.9569 158.098 94.7397 157.423L57.2573 135.349L125.531 67.097Z" fill="#FFCA28"/>
<path d="M90.1499 72.7302L57.2588 135.352L71.909 43.8288C72.4485 40.9777 74.0714 40.7031 75.5193 43.2197L90.1499 72.7302Z" fill="#FFA000"/>
</svg>
