<svg width="200" height="200" viewBox="0 0 200 200" fill="none" xmlns="http://www.w3.org/2000/svg">
<rect width="200" height="200" rx="25" fill="#0055FF" fillOpacity="0.66"/>
<g clipPath="url(#clip0_101_667)">
<path d="M99.5 182.5C145.064 182.5 182 145.564 182 100C182 54.4359 145.064 17.5 99.5 17.5C53.9359 17.5 17 54.4359 17 100C17 145.564 53.9359 182.5 99.5 182.5Z" fill="white"/>
<path d="M66.5 127.5H99.5V160.5L66.5 127.5Z" fill="#0055FF"/>
<path d="M66.5 94.5H99.5V127.5H66.5V94.5ZM99.5 94.5L132.5 127.5H99.5V94.5Z" fill="#00AAFF"/>
<path d="M99.5 61.5H132.5V94.5H99.5V61.5ZM66.5 61.5H99.5V94.5L66.5 61.5Z" fill="#88DDFF"/>
</g>
<defs>
<clipPath id="clip0_101_667">
<rect width="165" height="165" fill="white" transform="translate(17 17.5)"/>
</clipPath>
</defs>
</svg>
