<svg width="200" height="200" viewBox="0 0 200 200" fill="none" xmlns="http://www.w3.org/2000/svg">
<rect width="200" height="200" rx="25" fill="#F2685E"/>
<g clipPath="url(#clip0_103_711)">
<path d="M178.985 92.6578L178.979 92.6544L106.798 20.4266C102.904 16.5233 96.0894 16.5267 92.2087 20.4233L20.0145 92.6578C18.0742 94.6094 17 97.1993 17 99.9503C17 102.705 18.0742 105.297 20.0212 107.246L92.202 179.474C94.149 181.425 96.7406 182.5 99.5 182.5C102.259 182.5 104.851 181.425 106.791 179.477L178.979 107.246C180.926 105.297 182 102.705 182 99.9503C182 97.1993 180.926 94.6094 178.985 92.6578Z" fill="#EF473B"/>
<path opacity="0.1" d="M179.807 104.743L106.867 177.727C104.907 179.695 102.288 180.781 99.5 180.781C96.7121 180.781 94.0932 179.695 92.1261 177.723L19.1933 104.743C18.3411 103.89 17.6899 102.898 17.1851 101.84C17.5602 103.875 18.5278 105.751 20.0212 107.246L92.202 179.473C94.1491 181.425 96.7406 182.5 99.5 182.5C102.259 182.5 104.851 181.425 106.791 179.477L178.979 107.246C180.472 105.751 181.44 103.875 181.815 101.84C181.311 102.898 180.659 103.89 179.807 104.743Z" fill="#010101"/>
<path d="M133.875 86.2501C131.298 86.2501 128.912 87.0067 126.847 88.2458L111.254 72.6529C112.493 70.5892 113.25 68.2028 113.25 65.6251C113.25 58.0418 107.08 51.8751 99.5002 51.8751C96.9573 51.8751 94.6033 52.6162 92.5576 53.8247L75.6882 36.9531L70.8286 41.8152L87.6976 58.6863C86.4908 60.7307 85.7502 63.0835 85.7502 65.6251C85.7502 72.0142 90.1503 77.3496 96.0627 78.8867V121.114C90.1503 122.651 85.7502 127.986 85.7502 134.375C85.7502 141.958 91.9202 148.125 99.5002 148.125C107.08 148.125 113.25 141.958 113.25 134.375C113.25 127.986 108.85 122.651 102.938 121.114V78.8867C104.153 78.5707 105.293 78.0902 106.354 77.4738L122.026 93.1465C120.849 95.1724 120.125 97.4929 120.125 100C120.125 107.583 126.295 113.75 133.875 113.75C141.455 113.75 147.625 107.583 147.625 100C147.625 92.4168 141.455 86.2501 133.875 86.2501Z" fill="white"/>
<path opacity="0.2" d="M20.0145 94.3765L92.2087 22.142C96.0894 18.2454 102.904 18.2421 106.798 22.1454L178.979 94.3732L178.985 94.3765C180.72 96.1213 181.715 98.3864 181.916 100.81C181.94 100.522 182 100.242 182 99.9503C182 97.1993 180.926 94.6094 178.985 92.6578L178.979 92.6544L106.798 20.4266C102.904 16.5233 96.0894 16.5267 92.2087 20.4233L20.0145 92.6578C18.0742 94.6094 17 97.1993 17 99.9503C17 100.242 17.06 100.522 17.0839 100.809C17.2858 98.3855 18.2803 96.1209 20.0145 94.3765Z" fill="white"/>
<path d="M144.523 91.4089C146.432 93.7701 147.625 96.7334 147.625 100C147.625 107.583 141.455 113.75 133.875 113.75C126.295 113.75 120.125 107.583 120.125 100C120.125 97.4929 120.849 95.1724 122.026 93.1465L106.353 77.4738C105.292 78.0902 104.152 78.5707 102.937 78.8867V121.114C108.85 122.651 113.25 127.986 113.25 134.375C113.25 141.958 107.08 148.125 99.4998 148.125C95.9834 148.125 92.8048 146.759 90.3706 144.579L116.027 170.236L169.672 116.558L144.523 91.4089ZM111.254 72.6529L126.847 88.2458C128.911 87.0067 131.298 86.2501 133.875 86.2501C137.141 86.2501 140.105 87.4431 142.467 89.3532L110.308 57.1938L110.291 57.2076C112.116 59.5411 113.25 62.4394 113.25 65.6251C113.25 68.2028 112.493 70.5892 111.254 72.6529Z" fill="url(#paint0_linear_103_711)"/>
<path d="M178.985 92.6578L178.979 92.6544L106.798 20.4266C102.904 16.5233 96.0894 16.5267 92.2087 20.4233L20.0145 92.6578C18.0742 94.6094 17 97.1993 17 99.9503C17 102.705 18.0742 105.297 20.0212 107.246L92.202 179.474C94.149 181.425 96.7406 182.5 99.5 182.5C102.259 182.5 104.851 181.425 106.791 179.477L178.979 107.246C180.926 105.297 182 102.705 182 99.9503C182 97.1993 180.926 94.6094 178.985 92.6578Z" fill="url(#paint1_linear_103_711)"/>
</g>
<defs>
<linearGradient id="paint0_linear_103_711" x1="83.476" y1="84.0231" x2="142.858" y2="143.405" gradientUnits="userSpaceOnUse">
<stop stop-color="#010101" stop-opacity="0.1"/>
<stop offset="1" stop-color="#010101" stop-opacity="0"/>
</linearGradient>
<linearGradient id="paint1_linear_103_711" x1="30.845" y1="67.9621" x2="168.136" y2="131.982" gradientUnits="userSpaceOnUse">
<stop stop-color="white" stop-opacity="0.2"/>
<stop offset="1" stop-color="white" stop-opacity="0"/>
</linearGradient>
<clipPath id="clip0_103_711">
<rect width="165" height="165" fill="white" transform="translate(17 17.5)"/>
</clipPath>
</defs>
</svg>
