<svg width="199" height="201" viewBox="0 0 199 201" fill="none" xmlns="http://www.w3.org/2000/svg">
<rect width="199" height="201" rx="25" fill="#334462"/>
<path fillRule="evenodd" clipRule="evenodd" d="M99.5 28.3125C59.6357 28.3125 27.3125 61.4414 27.3125 102.337C27.3125 135.047 48.002 162.762 76.6836 172.559C80.293 173.235 81.6143 170.947 81.6143 168.981C81.6143 167.209 81.5498 162.568 81.5176 156.381C61.4404 160.86 57.1865 146.455 57.1865 146.455C53.8994 137.915 49.1621 135.627 49.1621 135.627C42.6201 131.019 49.6455 131.115 49.6455 131.115C56.8965 131.631 60.6992 138.753 60.6992 138.753C67.1445 150.064 77.5859 146.81 81.7109 144.908C82.3555 140.139 84.2246 136.852 86.2871 135.015C70.2705 133.146 53.416 126.797 53.416 98.4375C53.416 90.3486 56.2197 83.7422 60.8281 78.5859C60.0869 76.7168 57.6055 69.1758 61.5371 58.9922C61.5371 58.9922 67.5957 56.9941 81.3887 66.5654C87.1572 64.9219 93.3125 64.1162 99.4678 64.084C105.591 64.1162 111.778 64.9219 117.547 66.5654C131.34 56.9941 137.366 58.9922 137.366 58.9922C141.298 69.1758 138.816 76.7168 138.075 78.5859C142.684 83.7744 145.487 90.3809 145.487 98.4375C145.487 126.861 128.601 133.113 112.52 134.95C115.098 137.238 117.418 141.75 117.418 148.646C117.418 158.54 117.321 166.532 117.321 168.949C117.321 170.915 118.61 173.235 122.284 172.494C151.03 162.729 171.688 135.015 171.688 102.337C171.688 61.4414 139.364 28.3125 99.5 28.3125Z" fill="white"/>
</svg>
