<svg width="200" height="200" viewBox="0 0 200 200" fill="none" xmlns="http://www.w3.org/2000/svg">
<rect width="200" height="200" rx="25" fill="#F0DB4F"/>
<path d="M173.62 25.8792H25.3794V174.121H173.62V25.8792Z" fill="#F0DB4F"/>
<path d="M106.052 141.495C106.052 155.921 97.5809 162.506 85.2381 162.506C74.0874 162.506 67.635 156.749 64.3257 149.767L75.6752 142.918C77.8592 146.789 79.8447 150.065 84.6426 150.065C89.2088 150.065 92.1214 148.278 92.1214 141.296V93.9446H106.052V141.495Z" fill="#323330"/>
<path d="M139.009 162.506C126.071 162.506 117.7 156.351 113.629 148.278L124.979 141.726C127.957 146.59 131.862 150.197 138.711 150.197C144.469 150.197 148.174 147.318 148.174 143.315C148.174 138.549 144.403 136.863 138.017 134.05L134.542 132.561C124.483 128.292 117.832 122.898 117.832 111.549C117.832 101.092 125.806 93.1509 138.214 93.1509C147.082 93.1509 153.436 96.2282 158.002 104.302L147.149 111.251C144.766 106.982 142.185 105.295 138.182 105.295C134.111 105.295 131.53 107.876 131.53 111.251C131.53 115.42 134.111 117.108 140.101 119.722L143.575 121.211C155.421 126.274 162.072 131.469 162.072 143.117C162.072 155.624 152.211 162.506 139.009 162.506Z" fill="#323330"/>
</svg>
