<svg width="199" height="201" viewBox="0 0 199 201" fill="none" xmlns="http://www.w3.org/2000/svg">
<rect width="199" height="201" rx="25" fill="#1DA1F2"/>
<g clip-path="url(#clip0_101_676)">
<path fill-rule="evenodd" clip-rule="evenodd" d="M182 38.625C182 27.2416 172.758 18 161.375 18H37.625C26.2416 18 17 27.2416 17 38.625V162.375C17 173.758 26.2416 183 37.625 183H161.375C172.758 183 182 173.758 182 162.375V38.625Z" fill="#1DA1F2"/>
<path d="M64.3128 75.5784H36.6753V158.711H64.3128V75.5784Z" fill="white"/>
<path d="M50.6806 35.4927C41.225 35.4927 35.0469 41.7092 35.0469 49.857C35.0469 57.8337 41.0371 64.2217 50.3149 64.2217H50.4934C60.1301 64.2217 66.1284 57.8337 66.1284 49.857C65.9496 41.7092 60.1307 35.4927 50.6806 35.4927Z" fill="white"/>
<path d="M132.138 73.6235C117.479 73.6235 110.912 81.6857 107.235 87.3485V75.5784H79.6046C79.971 83.3763 79.6046 158.71 79.6046 158.71H107.235V112.283C107.235 109.798 107.413 107.314 108.146 105.538C110.14 100.575 114.689 95.4345 122.323 95.4345C132.317 95.4345 136.321 103.061 136.321 114.231V158.71H163.952V111.038C163.952 85.5022 150.319 73.6235 132.138 73.6235Z" fill="white"/>
</g>
<defs>
<clipPath id="clip0_101_676">
<rect width="165" height="165" fill="white" transform="translate(17 18)"/>
</clipPath>
</defs>
</svg>
