<svg width="200" height="200" viewBox="0 0 200 200" fill="none" xmlns="http://www.w3.org/2000/svg">
<rect width="200" height="200" rx="25" fill="white"/>
<g clipPath="url(#clip0_106_716)">
<path d="M94.0968 17.5444C93.7419 17.5767 92.6129 17.6895 91.5968 17.7702C68.1613 19.8828 46.2097 32.5261 32.3065 51.9587C24.5645 62.7636 19.6129 75.0198 17.7419 88.0018C17.0806 92.5334 17 93.8719 17 100.016C17 106.16 17.0806 107.499 17.7419 112.031C22.2258 143.01 44.2742 169.038 74.1774 178.682C79.5323 180.408 85.1774 181.585 91.5968 182.294C94.0968 182.569 104.903 182.569 107.403 182.294C118.484 181.069 127.871 178.327 137.129 173.602C138.548 172.876 138.823 172.683 138.629 172.522C138.5 172.425 132.452 164.313 125.194 154.508L112 136.688L95.4677 112.224C86.371 98.7744 78.8871 87.776 78.8226 87.776C78.7581 87.7599 78.6935 98.6293 78.6613 111.902C78.6129 135.14 78.5968 136.075 78.3065 136.624C77.8871 137.414 77.5645 137.736 76.8871 138.091C76.371 138.349 75.9194 138.398 73.4839 138.398H70.6935L69.9516 137.93C69.4677 137.624 69.1129 137.22 68.871 136.753L68.5323 136.027L68.5645 103.693L68.6129 71.3429L69.1129 70.714C69.371 70.3753 69.9194 69.9399 70.3064 69.7303C70.9677 69.4077 71.2258 69.3755 74.0161 69.3755C77.3065 69.3755 77.8548 69.5045 78.7097 70.4399C78.9516 70.6979 87.9032 84.1798 98.6129 100.419C109.323 116.659 123.968 138.833 131.161 149.719L144.226 169.506L144.887 169.071C150.742 165.265 156.935 159.846 161.839 154.202C172.274 142.22 179 127.609 181.258 112.031C181.919 107.499 182 106.16 182 100.016C182 93.8719 181.919 92.5334 181.258 88.0018C176.774 57.0225 154.726 30.994 124.823 21.3503C119.548 19.6409 113.935 18.4636 107.645 17.754C106.097 17.5928 95.4355 17.4154 94.0968 17.5444ZM127.871 67.4403C128.645 67.8273 129.274 68.5692 129.5 69.3432C129.629 69.7625 129.661 78.729 129.629 98.9357L129.581 127.931L124.468 120.094L119.339 112.256V91.1787C119.339 77.5517 119.403 69.8915 119.5 69.5206C119.758 68.6175 120.323 67.908 121.097 67.4887C121.758 67.15 122 67.1178 124.532 67.1178C126.919 67.1178 127.339 67.15 127.871 67.4403Z" fill="black"/>
</g>
<defs>
<clipPath id="clip0_106_716">
<rect width="165" height="165" fill="white" transform="translate(17 17.5)"/>
</clipPath>
</defs>
</svg>
