<svg width="200" height="200" viewBox="0 0 200 200" fill="none" xmlns="http://www.w3.org/2000/svg">
<rect width="200" height="200" rx="25" fill="white" fillOpacity="0.6"/>
<path d="M52.8361 51.7852C57.455 55.5376 59.1878 55.2512 67.8608 54.6726L149.628 49.7629C151.362 49.7629 149.92 48.0328 149.342 47.7453L135.762 37.9282C133.16 35.9082 129.693 33.5947 123.049 34.1734L43.8741 39.9481C40.9867 40.2345 40.4099 41.6781 41.5599 42.8354L52.8361 51.7852ZM57.7453 70.8409V156.874C57.7453 161.498 60.0559 163.228 65.2564 162.942L155.118 157.742C160.321 157.456 160.901 154.275 160.901 150.52V65.0637C160.901 61.3137 159.459 59.2913 156.273 59.58L62.3666 65.0637C58.9012 65.3548 57.7453 67.0883 57.7453 70.8409ZM146.457 75.4559C147.033 78.057 146.457 80.6556 143.851 80.9479L139.522 81.8105V145.325C135.762 147.346 132.296 148.501 129.407 148.501C124.782 148.501 123.624 147.057 120.16 142.728L91.8382 98.2674V141.285L100.8 143.307C100.8 143.307 100.8 148.501 93.5697 148.501L73.6369 149.657C73.0579 148.501 73.6369 145.617 75.6587 145.038L80.8603 143.597V86.7204L73.6381 86.1416C73.059 83.5406 74.5015 79.7906 78.5496 79.4994L99.9331 78.0581L129.407 123.098V83.2542L121.892 82.3916C121.315 79.212 123.624 76.9031 126.514 76.6167L146.457 75.4559ZM37.2264 32.1533L119.581 26.0887C129.695 25.2213 132.297 25.8023 138.654 30.4197L164.941 48.8966C169.28 52.074 170.725 52.939 170.725 56.4027V157.742C170.725 164.093 168.412 167.849 160.323 168.423L64.6843 174.199C58.6122 174.489 55.7223 173.623 52.5424 169.578L33.183 144.461C29.714 139.838 28.2715 136.378 28.2715 132.331V42.2545C28.2715 37.0608 30.5857 32.7285 37.2264 32.1533Z" fill="black"/>
</svg>
