<svg width="200" height="200" viewBox="0 0 200 200" fill="none" xmlns="http://www.w3.org/2000/svg">
<rect width="200" height="200" rx="25" fill="#1CBDF1" fillOpacity="0.6"/>
<path d="M171.688 27.8125H27.3125V172.188H171.688V27.8125Z" fill="url(#paint0_radial_101_663)"/>
<path d="M175.125 175.625H23.875V24.375H175.125V175.625ZM30.75 168.75H168.25V31.25H30.75V168.75Z" fill="#00B5EF"/>
<path d="M72 141.25H58.25V58.75L77.6496 58.75C92.0037 58.75 104.847 69.216 106.241 83.5022C107.84 99.8941 94.9448 113.75 78.875 113.75H72V141.25ZM72 100H78.875C86.4583 100 92.625 93.8333 92.625 86.25C92.625 78.6667 86.4583 72.5 78.875 72.5H72V100Z" fill="#00B5EF"/>
<path d="M121.755 141.094C113.545 140.381 107.482 137.46 106.737 137.087L112.887 124.788C112.907 124.799 118.528 127.5 125.325 127.5C128.145 127.5 130.438 125.207 130.438 122.387C130.438 120.185 129.034 118.235 126.943 117.54L123.627 116.435C116.612 114.099 111.001 108.217 109.995 100.892C108.406 89.3173 117.403 79.375 128.675 79.375C138.649 79.375 146.411 83.1118 147.263 83.5376L141.143 95.8508C141.091 95.825 135.471 93.125 128.675 93.125C125.855 93.125 123.563 95.4178 123.563 98.2376C123.563 100.44 124.966 102.39 127.057 103.085L131.29 104.495C139.605 107.266 144.979 115.404 144.092 124.301C143.019 135.07 132.538 142.029 121.755 141.094Z" fill="#00B5EF"/>
<path d="M175.125 175.625H23.875V24.375H175.125V175.625Z" fill="url(#paint1_linear_101_663)"/>
<defs>
<radialGradient id="paint0_radial_101_663" cx="0" cy="0" r="1" gradientUnits="userSpaceOnUse" gradientTransform="translate(77.7292 59.8958) scale(120.919)">
<stop stop-color="#193458" stop-opacity="0.98"/>
<stop offset="0.933387" stop-color="#210021"/>
</radialGradient>
<linearGradient id="paint1_linear_101_663" x1="8.41604" y1="57.5268" x2="190.584" y2="142.473" gradientUnits="userSpaceOnUse">
<stop stop-color="white" stop-opacity="0.2"/>
<stop offset="1" stop-color="white" stop-opacity="0"/>
</linearGradient>
</defs>
</svg>
