<svg width="200" height="200" viewBox="0 0 200 200" fill="none" xmlns="http://www.w3.org/2000/svg">
<rect width="200" height="200" rx="25" fill="#61DAFB" fillOpacity="0.5"/>
<path d="M99.3549 115.14C107.651 115.14 114.377 108.415 114.377 100.118C114.377 91.8219 107.651 85.0964 99.3549 85.0964C91.0585 85.0964 84.333 91.8219 84.333 100.118C84.333 108.415 91.0585 115.14 99.3549 115.14Z" fill="#61DAFB"/>
<path d="M99.3549 155.36C111.146 166.829 122.776 173.613 132.145 173.613C135.214 173.613 138.121 172.967 140.544 171.513C148.943 166.667 152.012 154.553 149.105 137.269C148.62 134.2 147.974 131.131 147.167 127.901C150.397 126.932 153.305 125.962 156.212 124.993C172.526 118.694 181.572 109.971 181.572 100.441C181.572 90.7498 172.526 82.0274 156.212 75.8894C153.305 74.7587 150.397 73.7896 147.167 72.982C147.974 69.7514 148.62 66.6824 149.105 63.6134C151.851 46.0071 148.782 33.7311 140.382 28.8854C137.96 27.4316 135.052 26.7855 131.983 26.7855C122.776 26.7855 110.985 33.5696 99.1934 45.038C87.5635 33.5696 75.9336 26.7855 66.5651 26.7855C63.4961 26.7855 60.5887 27.4316 58.1658 28.8854C49.7664 33.7311 46.6974 45.8456 49.6049 63.1289C50.0895 66.1979 50.7356 69.2669 51.5432 72.4974C48.3127 73.4665 45.4052 74.4357 42.4978 75.4048C26.1836 81.7044 17.1382 90.4268 17.1382 99.9568C17.1382 109.648 26.1836 118.371 42.4978 124.509C45.4052 125.639 48.3127 126.609 51.5432 127.416C50.7356 130.647 50.0895 133.716 49.6049 136.785C46.859 154.068 49.928 166.344 58.1658 171.028C60.5887 172.482 63.4961 173.128 66.5651 173.128C75.9336 173.451 87.5635 166.667 99.3549 155.36ZM90.3095 133.554C93.2169 133.716 96.2859 133.716 99.3549 133.716C102.424 133.716 105.493 133.716 108.4 133.554C105.493 137.431 102.424 140.984 99.3549 144.376C96.2859 140.984 93.2169 137.431 90.3095 133.554ZM70.2802 116.917C71.8955 119.663 73.3492 122.247 75.126 124.832C70.1187 124.186 65.4344 123.378 60.9117 122.409C62.3655 118.048 63.9807 113.525 65.919 109.002C67.2112 111.587 68.665 114.333 70.2802 116.917ZM60.9117 77.9893C65.4344 77.0201 70.1187 76.2125 75.126 75.5664C73.5107 78.1508 71.8955 80.7352 70.2802 83.4811C68.665 86.2271 67.2112 88.8115 65.919 91.5574C63.8192 86.8732 62.2039 82.3505 60.9117 77.9893ZM69.7956 100.118C71.8955 95.7571 74.1569 91.3959 76.7413 87.0347C79.1642 82.835 81.9101 78.6354 84.656 74.4357C89.5018 74.1126 94.3476 73.9511 99.3549 73.9511C104.524 73.9511 109.37 74.1126 114.054 74.4357C116.961 78.6354 119.546 82.835 121.969 87.0347C124.553 91.3959 126.814 95.7571 128.914 100.118C126.814 104.48 124.553 108.841 121.969 113.202C119.546 117.402 116.8 121.601 114.054 125.801C109.208 126.124 104.362 126.286 99.3549 126.286C94.1861 126.286 89.3403 126.124 84.656 125.801C81.7486 121.601 79.1642 117.402 76.7413 113.202C74.1569 108.841 71.8955 104.48 69.7956 100.118ZM132.952 91.3959L128.591 83.3196C126.976 80.5737 125.522 77.9893 123.745 75.4048C128.753 76.0509 133.437 76.8586 137.96 77.8277C136.506 82.3505 134.891 86.8732 132.952 91.3959ZM132.952 108.841C134.891 113.363 136.506 117.886 137.96 122.247C133.437 123.217 128.753 124.024 123.745 124.67C125.361 122.086 126.976 119.501 128.591 116.755C130.045 114.333 131.499 111.587 132.952 108.841ZM136.667 164.89C135.375 165.698 133.76 166.021 131.983 166.021C124.068 166.021 114.215 159.56 104.524 149.868C109.208 144.861 113.731 139.208 118.253 132.908C125.845 132.262 133.114 131.131 139.898 129.516C140.706 132.424 141.19 135.331 141.675 138.238C143.936 151.968 142.159 161.821 136.667 164.89ZM145.067 79.766C163.158 84.9349 173.98 92.8496 173.98 100.118C173.98 106.418 166.55 112.717 153.466 117.725C150.882 118.694 147.974 119.663 145.067 120.471C142.967 113.848 140.382 107.064 137.152 100.118C140.382 93.1727 143.128 86.3886 145.067 79.766ZM132.145 34.2157C133.921 34.2157 135.375 34.5388 136.829 35.3464C142.159 38.4154 144.098 48.1069 141.836 61.9982C141.352 64.7441 140.706 67.6516 140.059 70.7206C133.275 69.2669 126.007 68.1362 118.415 67.3285C114.054 61.029 109.37 55.3756 104.685 50.3683C114.377 40.8383 124.23 34.2157 132.145 34.2157ZM108.4 66.6824C105.493 66.5209 102.424 66.5209 99.3549 66.5209C96.2859 66.5209 93.2169 66.5209 90.3095 66.6824C93.2169 62.8058 96.2859 59.2522 99.3549 55.8602C102.424 59.2522 105.493 62.9673 108.4 66.6824ZM62.0424 35.3464C63.3346 34.5388 64.9499 34.2157 66.7267 34.2157C74.6414 34.2157 84.4945 40.6768 94.1861 50.3683C89.5018 55.3756 84.9791 61.029 80.4564 67.3285C72.8646 67.9746 65.596 69.1053 58.8119 70.7206C58.0043 67.8131 57.5197 64.9057 57.0351 61.9982C54.7737 48.2685 56.5505 38.5769 62.0424 35.3464ZM53.6431 120.471C35.5521 115.302 24.7299 107.387 24.7299 100.118C24.7299 93.8188 32.1601 87.5193 45.2437 82.512C47.8281 81.5428 50.7356 80.5737 53.6431 79.766C55.7429 86.3886 58.3273 93.1727 61.5578 100.118C58.3273 107.064 55.5814 114.01 53.6431 120.471ZM57.0351 138.238C57.5197 135.493 58.1658 132.585 58.8119 129.516C65.596 130.97 72.8646 132.1 80.4564 132.908C84.8176 139.208 89.5018 144.861 94.1861 149.868C84.4945 159.398 74.6414 166.021 66.7267 166.021C64.9499 166.021 63.4961 165.698 62.0424 164.89C56.5505 161.821 54.7737 151.968 57.0351 138.238Z" fill="#61DAFB"/>
</svg>
