<svg width="200" height="200" viewBox="0 0 200 200" fill="none" xmlns="http://www.w3.org/2000/svg">
<rect width="200" height="200" rx="25" fill="#CF649A" fillOpacity="0.6"/>
<path d="M152.999 108.312C147.812 108.335 143.32 109.586 139.568 111.438C138.202 108.682 136.789 106.274 136.557 104.468C136.28 102.361 135.979 101.111 136.303 98.6097C136.628 96.1083 138.086 92.5653 138.063 92.3111C138.04 92.0565 137.739 90.7826 134.752 90.7594C131.765 90.7365 129.195 91.3381 128.893 92.1254C128.592 92.9127 128.014 94.6961 127.666 96.5485C127.133 99.2578 121.691 108.937 118.611 113.985C117.593 112.018 116.736 110.28 116.551 108.891C116.273 106.783 115.972 105.533 116.296 103.033C116.62 100.531 118.079 96.9881 118.056 96.7338C118.032 96.4792 117.731 95.2053 114.745 95.1821C111.757 95.1592 109.187 95.7609 108.886 96.5485C108.585 97.3355 108.261 99.1882 107.659 100.972C107.057 102.754 99.8085 118.871 97.9097 123.063C96.9368 125.192 96.1038 126.906 95.5015 128.064C95.4093 128.249 95.3397 128.365 95.2933 128.458C95.3626 128.343 95.4093 128.226 95.4093 128.273C94.8998 129.268 94.5985 129.824 94.5985 129.824V129.847C94.2047 130.588 93.7648 131.259 93.5566 131.259C93.4174 131.259 93.1167 129.315 93.6262 126.652C94.7142 121.048 97.2845 112.342 97.2613 112.04C97.2381 111.878 97.7473 110.373 95.5707 109.562C93.4638 108.798 92.6994 110.072 92.5144 110.072C92.3294 110.072 92.1902 110.535 92.1902 110.535C92.1902 110.535 94.5292 100.717 87.6978 100.717C83.4371 100.717 77.5094 105.395 74.5919 109.633C72.7624 110.628 68.8024 112.782 64.6345 115.074C63.0367 115.954 61.3925 116.857 59.8412 117.714C59.7255 117.598 59.6326 117.482 59.517 117.366C51.227 108.521 35.9207 102.269 36.5694 90.3891C36.8008 86.0588 38.3061 74.6896 66.0009 60.8882C88.6942 49.588 106.848 52.6911 109.975 59.5914C114.467 69.4331 100.272 87.7497 76.6992 90.3891C67.7144 91.3849 62.991 87.9115 61.8099 86.615C60.5824 85.2489 60.3971 85.179 59.934 85.4339C59.1695 85.8506 59.6562 87.0549 59.934 87.7726C60.6288 89.6018 63.523 92.8438 68.4556 94.4648C72.7853 95.8773 83.3217 96.6649 96.0574 91.7323C110.368 86.2209 121.506 70.8682 118.241 58.0168C114.907 44.957 93.2559 40.6728 72.7627 47.9438C60.5595 52.2741 47.3604 59.0823 37.8662 67.9507C26.5891 78.5104 24.7832 87.703 25.5237 91.5473C28.1637 105.186 46.9663 114.078 54.4922 120.654C54.1216 120.863 53.7742 121.048 53.4503 121.233C49.6759 123.109 35.3422 130.611 31.7528 138.532C27.701 147.516 32.4241 153.953 35.5272 154.833C45.2064 157.519 55.1174 152.68 60.4435 144.737C65.7689 136.795 65.1208 126.421 62.6665 121.697C62.6429 121.627 62.5968 121.581 62.574 121.511C63.5462 120.933 64.5417 120.354 65.5378 119.775C67.4595 118.64 69.3354 117.598 70.9793 116.695C70.0528 119.196 69.3815 122.205 69.0341 126.56C68.6174 131.654 70.7247 138.253 73.4572 140.847C74.6609 141.982 76.1198 142.005 77.0231 142.005C80.2187 142.005 81.654 139.365 83.2518 136.216C85.2202 132.371 86.9569 127.902 86.9569 127.902C86.9569 127.902 84.7803 139.99 90.7313 139.99C92.9079 139.99 95.0851 137.188 96.057 135.752V135.775C96.057 135.775 96.1038 135.683 96.2195 135.498C96.4508 135.15 96.5665 134.942 96.5665 134.942V134.872C97.4463 133.367 99.3686 129.917 102.263 124.221C106.014 116.856 109.603 107.663 109.603 107.663C109.603 107.663 109.927 109.91 111.039 113.638C111.688 115.838 113.054 118.246 114.142 120.585C113.262 121.789 112.729 122.484 112.729 122.484C112.729 122.484 112.729 122.507 112.752 122.53C112.058 123.457 111.271 124.453 110.46 125.425C107.496 128.945 103.976 132.974 103.513 134.132C102.957 135.498 103.096 136.516 104.162 137.304C104.949 137.906 106.338 137.999 107.797 137.883C110.46 137.697 112.336 137.05 113.239 136.632C114.674 136.123 116.342 135.312 117.916 134.178C120.811 132.048 122.571 128.991 122.408 124.962C122.316 122.739 121.598 120.516 120.718 118.432C120.973 118.061 121.251 117.667 121.505 117.274C126.091 110.581 129.634 103.242 129.634 103.242C129.634 103.242 129.958 105.487 131.069 109.216C131.625 111.091 132.713 113.152 133.709 115.166C129.402 118.663 126.739 122.716 125.812 125.378C124.099 130.311 125.442 132.533 127.966 133.044C129.101 133.275 130.722 132.742 131.926 132.233C133.431 131.723 135.237 130.913 136.927 129.662C139.822 127.532 142.624 124.545 142.439 120.493C142.369 118.663 141.86 116.834 141.188 115.074C144.824 113.546 149.548 112.712 155.569 113.407C168.467 114.912 170.99 122.97 170.504 126.327C170.018 129.709 167.309 131.561 166.406 132.117C165.502 132.673 165.225 132.881 165.295 133.298C165.41 133.9 165.827 133.877 166.591 133.738C167.656 133.553 173.352 131.005 173.607 124.776C173.978 116.903 166.406 108.243 152.999 108.312ZM53.5892 141.819C49.3288 146.474 43.3544 148.233 40.7843 146.751C38.0286 145.154 39.1169 138.3 44.3734 133.344C47.569 130.334 51.6907 127.555 54.4232 125.842C55.0484 125.472 55.9517 124.916 57.0632 124.244C57.2485 124.129 57.341 124.082 57.341 124.082C57.5492 123.943 57.7809 123.827 58.0126 123.688C59.934 130.728 58.0816 136.933 53.5892 141.819ZM84.7114 120.654C83.2293 124.289 80.103 133.552 78.2048 133.066C76.5838 132.649 75.5877 125.587 77.8806 118.64C79.0382 115.143 81.4926 110.975 82.9518 109.355C85.2901 106.738 87.8605 105.904 88.4628 106.946C89.273 108.312 85.6372 118.385 84.7114 120.654ZM110.414 132.928C109.789 133.252 109.21 133.46 108.933 133.298C108.724 133.182 109.187 132.742 109.187 132.742C109.187 132.742 112.406 129.292 113.679 127.716C114.42 126.791 115.277 125.702 116.203 124.498C116.203 124.613 116.226 124.73 116.226 124.868C116.204 129.014 112.221 131.816 110.414 132.928ZM130.237 128.412C129.773 128.088 129.842 126.999 131.394 123.618C131.996 122.298 133.386 120.076 135.794 117.945C136.072 118.825 136.234 119.658 136.234 120.445C136.21 125.656 132.482 127.601 130.237 128.412Z" fill="#CF649A"/>
</svg>
