<svg width="200" height="200" viewBox="0 0 200 200" fill="none" xmlns="http://www.w3.org/2000/svg">
<rect width="200" height="200" rx="25" fill="#0B1120"/>
<g clipPath="url(#clip0_101_669)">
<path d="M99.5007 45C88.215 45 78.5123 48.046 70.8963 54.5741C63.335 61.0552 58.3885 70.4902 55.6445 82.2502C55.0456 84.8167 56.3516 87.4474 58.7581 88.5219C61.1646 89.5965 63.9951 88.813 65.5064 86.6539C68.9893 81.6784 72.4668 78.6887 75.8082 77.1544C79.0442 75.6686 82.5323 75.3675 86.5276 76.4377C90.5595 77.5177 93.6807 80.6806 98.5807 86.0098L98.739 86.182C102.433 90.1996 106.939 95.1006 113.101 98.9031C119.496 102.849 127.454 105.5 138.001 105.5C149.286 105.5 158.989 102.454 166.605 95.9258C174.166 89.4447 179.112 80.0097 181.857 68.2497C182.455 65.6832 181.15 63.0525 178.743 61.9779C176.337 60.9034 173.506 61.6868 171.994 63.8459C168.512 68.8215 165.035 71.8111 161.693 73.3455C158.457 74.8313 154.969 75.1324 150.973 74.0622C146.942 72.9822 143.82 69.8193 138.921 64.49L138.762 64.3178C135.068 60.3002 130.563 55.3992 124.4 51.5968C118.005 47.6511 110.047 45 99.5007 45Z" fill="#349ECD"/>
<path d="M61.0007 94.4999C49.715 94.4999 40.0123 97.5459 32.3963 104.074C24.835 110.555 19.8885 119.99 17.1445 131.75C16.5456 134.317 17.8516 136.947 20.258 138.022C22.6645 139.096 25.495 138.313 27.0064 136.154C30.4893 131.178 33.9668 128.189 37.3082 126.654C40.5442 125.168 44.0322 124.867 48.0276 125.938C52.0595 127.018 55.1807 130.181 60.0807 135.51L60.239 135.682C63.9326 139.699 68.4386 144.601 74.6014 148.403C80.9963 152.349 88.9541 155 99.5007 155C110.786 155 120.489 151.954 128.106 145.426C135.666 138.944 140.613 129.51 143.357 117.75C143.955 115.183 142.65 112.552 140.243 111.478C137.837 110.403 135.006 111.187 133.494 113.346C130.012 118.321 126.534 121.311 123.193 122.845C119.957 124.331 116.469 124.632 112.474 123.562C108.442 122.482 105.321 119.319 100.421 113.99L100.262 113.818C96.5686 109.8 92.0627 104.899 85.8998 101.097C79.505 97.151 71.5471 94.4999 61.0007 94.4999Z" fill="#349ECD"/>
</g>
<defs>
<clipPath id="clip0_101_669">
<rect width="165" height="165" fill="white" transform="translate(17 17.5)"/>
</clipPath>
</defs>
</svg>
