<svg width="200" height="200" viewBox="0 0 200 200" fill="none" xmlns="http://www.w3.org/2000/svg">
<rect width="200" height="200" rx="25" fill="#007ACC"/>
<g clipPath="url(#clip0_101_673)">
<path d="M17 100V17.5H182V182.5H17" fill="#007ACC"/>
<path d="M53.1763 100.289V107.013H74.6263V168.063H89.8475V107.013H111.298V100.413C111.298 96.7 111.298 93.6888 111.133 93.6063C111.133 93.4825 98.0563 93.4413 82.175 93.4413L53.3 93.565V100.33L53.1763 100.289ZM149.578 93.4C153.785 94.39 157.003 96.2875 159.89 99.2988C161.416 100.949 163.685 103.836 163.85 104.579C163.85 104.826 156.714 109.653 152.383 112.334C152.218 112.458 151.558 111.756 150.898 110.684C148.753 107.631 146.566 106.311 143.143 106.064C138.193 105.734 134.893 108.333 134.893 112.664C134.893 113.984 135.14 114.726 135.635 115.799C136.749 118.068 138.811 119.429 145.205 122.234C157.003 127.308 162.118 130.649 165.211 135.434C168.718 140.796 169.501 149.211 167.15 155.523C164.51 162.411 158.075 167.073 148.876 168.599C145.989 169.094 139.389 169.011 136.295 168.475C129.695 167.238 123.384 163.938 119.506 159.689C117.98 158.039 115.051 153.625 115.216 153.336L116.784 152.346L122.971 148.758L127.633 146.035L128.705 147.479C130.066 149.624 133.119 152.511 134.893 153.501C140.255 156.265 147.433 155.894 150.98 152.676C152.506 151.274 153.166 149.789 153.166 147.726C153.166 145.829 152.878 144.963 151.929 143.519C150.609 141.704 147.969 140.219 140.544 136.919C132.005 133.289 128.375 130.979 124.993 127.431C123.054 125.286 121.28 121.945 120.455 119.181C119.836 116.789 119.63 110.931 120.208 108.58C121.981 100.33 128.21 94.555 137.12 92.905C140.008 92.3275 146.814 92.575 149.66 93.3175L149.578 93.4Z" fill="white"/>
</g>
<defs>
<clipPath id="clip0_101_673">
<rect width="165" height="165" fill="white" transform="translate(17 17.5)"/>
</clipPath>
</defs>
</svg>
