<svg width="199" height="201" viewBox="0 0 199 201" fill="none" xmlns="http://www.w3.org/2000/svg">
<rect width="199" height="201" rx="25" fill="#1DA1F2"/>
<g clip-path="url(#clip0_101_677)">
<path d="M161.375 183H37.625C26.24 183 17 173.76 17 162.375V38.625C17 27.24 26.24 18 37.625 18H161.375C172.76 18 182 27.24 182 38.625V162.375C182 173.76 172.76 183 161.375 183Z" fill="#1DA1F2"/>
<path d="M80.36 142.41C119.259 142.41 140.544 110.153 140.544 82.2263C140.544 81.3188 140.544 80.4113 140.503 79.5038C144.628 76.5338 148.216 72.7801 151.063 68.5313C147.268 70.2226 143.184 71.3363 138.894 71.8726C143.266 69.2738 146.608 65.1076 148.216 60.1576C144.133 62.5913 139.595 64.3238 134.769 65.2726C130.891 61.1476 125.405 58.5901 119.341 58.5901C107.668 58.5901 98.18 68.0776 98.18 79.7513C98.18 81.4013 98.3863 83.0101 98.7163 84.5776C81.1438 83.7113 65.5513 75.2551 55.115 62.4676C53.3 65.6026 52.2688 69.2326 52.2688 73.1101C52.2688 80.4526 56.0225 86.9288 61.6737 90.7238C58.2087 90.6001 54.95 89.6513 52.1038 88.0838V88.3726C52.1038 98.6026 59.405 107.183 69.0575 109.121C67.2837 109.616 65.4275 109.864 63.4887 109.864C62.1275 109.864 60.8075 109.74 59.5288 109.493C62.21 117.908 70.0475 124.013 79.2875 124.178C72.0275 129.87 62.9113 133.253 53.0113 133.253C51.32 133.253 49.6288 133.17 47.9788 132.964C57.3013 138.904 68.4388 142.41 80.36 142.41Z" fill="white"/>
</g>
<defs>
<clipPath id="clip0_101_677">
<rect width="165" height="165" fill="white" transform="translate(17 18)"/>
</clipPath>
</defs>
</svg>
