<svg width="200" height="200" viewBox="0 0 200 200" fill="none" xmlns="http://www.w3.org/2000/svg">
<rect width="200" height="200" rx="25" fill="#57B5F4" fillOpacity="0.6"/>
<g clipPath="url(#clip0_101_674)">
<mask id="mask0_101_674" style="mask-type:luminance" maskUnits="userSpaceOnUse" x="17" y="17" width="165" height="166">
<path d="M133.549 181.594C136.138 182.61 139.09 182.545 141.703 181.278L175.541 164.868C179.097 163.143 181.358 159.516 181.358 155.537V44.2618C181.358 40.2828 179.097 36.6559 175.541 34.9314L141.703 18.5202C138.274 16.8573 134.26 17.2646 131.251 19.4697C130.821 19.7847 130.411 20.1364 130.028 20.524L65.2474 80.0894L37.0306 58.5018C34.4039 56.4923 30.7299 56.6569 28.2903 58.8935L19.2402 67.1907C16.2562 69.9265 16.2528 74.658 19.2329 77.3983L43.7034 99.8989L19.2329 122.4C16.2528 125.14 16.2562 129.872 19.2402 132.607L28.2903 140.904C30.7299 143.141 34.4039 143.306 37.0306 141.296L65.2474 119.709L130.028 179.274C131.052 180.307 132.255 181.086 133.549 181.594ZM140.294 62.2941L91.1402 99.8989L140.294 137.504V62.2941Z" fill="white"/>
</mask>
<g mask="url(#mask0_101_674)">
<path d="M175.642 34.9571L141.777 18.5233C137.857 16.6211 133.172 17.4235 130.096 20.524L19.2342 122.4C16.2523 125.14 16.2557 129.872 19.2416 132.608L28.2971 140.904C30.7382 143.141 34.4145 143.306 37.0428 141.297L170.546 39.2204C175.025 35.796 181.458 39.0156 181.458 44.6816V44.2854C181.458 40.3081 179.197 36.6825 175.642 34.9571Z" fill="#0065A9"/>
</g>
<mask id="mask1_101_674" style="mask-type:luminance" maskUnits="userSpaceOnUse" x="17" y="17" width="165" height="166">
<path d="M133.549 181.594C136.138 182.61 139.09 182.545 141.703 181.278L175.541 164.868C179.097 163.143 181.358 159.516 181.358 155.537V44.2618C181.358 40.2828 179.097 36.6559 175.541 34.9314L141.703 18.5202C138.274 16.8573 134.26 17.2646 131.251 19.4697C130.821 19.7847 130.411 20.1364 130.028 20.524L65.2474 80.0894L37.0306 58.5018C34.4039 56.4923 30.7299 56.6569 28.2903 58.8935L19.2402 67.1907C16.2562 69.9265 16.2528 74.658 19.2329 77.3983L43.7034 99.8989L19.2329 122.4C16.2528 125.14 16.2562 129.872 19.2402 132.607L28.2903 140.904C30.7299 143.141 34.4039 143.306 37.0306 141.296L65.2474 119.709L130.028 179.274C131.052 180.307 132.255 181.086 133.549 181.594ZM140.294 62.2941L91.1402 99.8989L140.294 137.504V62.2941Z" fill="white"/>
</mask>
<g mask="url(#mask1_101_674)">
<path d="M175.642 164.841L141.777 181.275C137.857 183.177 133.172 182.374 130.096 179.274L19.2342 77.3983C16.2523 74.6581 16.2557 69.9264 19.2416 67.1907L28.2971 58.8935C30.7382 56.6569 34.4145 56.4922 37.0428 58.5018L170.546 160.578C175.025 164.002 181.458 160.783 181.458 155.116V155.513C181.458 159.49 179.197 163.115 175.642 164.841Z" fill="#007ACC"/>
</g>
<mask id="mask2_101_674" style="mask-type:luminance" maskUnits="userSpaceOnUse" x="17" y="17" width="165" height="166">
<path d="M133.549 181.594C136.138 182.61 139.09 182.545 141.703 181.278L175.541 164.868C179.097 163.143 181.358 159.516 181.358 155.537V44.2618C181.358 40.2828 179.097 36.6559 175.541 34.9314L141.703 18.5202C138.274 16.8573 134.26 17.2646 131.251 19.4697C130.821 19.7847 130.411 20.1364 130.028 20.524L65.2474 80.0894L37.0306 58.5018C34.4039 56.4923 30.7299 56.6569 28.2903 58.8935L19.2402 67.1907C16.2562 69.9265 16.2528 74.658 19.2329 77.3983L43.7034 99.8989L19.2329 122.4C16.2528 125.14 16.2562 129.872 19.2402 132.607L28.2903 140.904C30.7299 143.141 34.4039 143.306 37.0306 141.296L65.2474 119.709L130.028 179.274C131.052 180.307 132.255 181.086 133.549 181.594ZM140.294 62.2941L91.1402 99.8989L140.294 137.504V62.2941Z" fill="white"/>
</mask>
<g mask="url(#mask2_101_674)">
<path d="M141.671 181.288C137.75 183.189 133.065 182.386 129.988 179.285C133.779 183.105 140.261 180.399 140.261 174.996V24.823C140.261 19.4199 133.779 16.7139 129.988 20.5345C133.065 17.4337 137.75 16.6302 141.671 18.5307L175.53 34.9419C179.088 36.6664 181.35 40.2933 181.35 44.2724V155.547C181.35 159.526 179.088 163.153 175.53 164.878L141.671 181.288Z" fill="#1F9CF0"/>
</g>
<mask id="mask3_101_674" style="mask-type:luminance" maskUnits="userSpaceOnUse" x="17" y="17" width="165" height="166">
<path d="M133.549 181.594C136.138 182.61 139.09 182.545 141.703 181.278L175.541 164.868C179.097 163.143 181.358 159.516 181.358 155.537V44.2618C181.358 40.2828 179.097 36.6559 175.541 34.9314L141.703 18.5202C138.274 16.8573 134.26 17.2646 131.251 19.4697C130.821 19.7847 130.411 20.1364 130.028 20.524L65.2474 80.0894L37.0306 58.5018C34.4039 56.4923 30.7299 56.6569 28.2903 58.8935L19.2402 67.1907C16.2562 69.9265 16.2528 74.658 19.2329 77.3983L43.7034 99.8989L19.2329 122.4C16.2528 125.14 16.2562 129.872 19.2402 132.607L28.2903 140.904C30.7299 143.141 34.4039 143.306 37.0306 141.296L65.2474 119.709L130.028 179.274C131.052 180.307 132.255 181.086 133.549 181.594ZM140.294 62.2941L91.1402 99.8989L140.294 137.504V62.2941Z" fill="white"/>
</mask>
<g mask="url(#mask3_101_674)">
<path d="M133.549 181.594C136.138 182.61 139.09 182.545 141.702 181.278L175.541 164.867C179.097 163.143 181.358 159.516 181.358 155.537V44.2618C181.358 40.2828 179.097 36.6559 175.541 34.9314L141.702 18.5202C138.274 16.8573 134.261 17.2646 131.251 19.4697C130.821 19.7847 130.412 20.1364 130.027 20.524L65.2474 80.0893L37.0306 58.5018C34.4039 56.4923 30.7298 56.6569 28.2903 58.8935L19.2402 67.1907C16.2562 69.9265 16.2528 74.6581 19.2329 77.3983L43.7035 99.899L19.2329 122.4C16.2528 125.14 16.2562 129.872 19.2402 132.608L28.2903 140.904C30.7298 143.141 34.4039 143.306 37.0306 141.297L65.2474 119.709L130.027 179.274C131.052 180.308 132.256 181.086 133.549 181.594ZM140.294 62.2941L91.1404 99.899L140.294 137.504V62.2941Z" fill="url(#paint0_linear_101_674)" fillOpacity="0.25"/>
</g>
</g>
<defs>
<linearGradient id="paint0_linear_101_674" x1="21054.9" y1="17.5" x2="21054.9" y2="41876.2" gradientUnits="userSpaceOnUse">
<stop stop-color="white"/>
<stop offset="1" stop-color="white" stop-opacity="0"/>
</linearGradient>
<clipPath id="clip0_101_674">
<rect width="165" height="165" fill="white" transform="translate(17 17.5)"/>
</clipPath>
</defs>
</svg>
